<?xml version="1.0" standalone="yes"?>

<svg version="1.1" viewBox="0.0 0.0 490.65879265091866 721.8267716535433" fill="none" stroke="none" stroke-linecap="square" stroke-miterlimit="10" xmlns="http://www.w3.org/2000/svg" xmlns:xlink="http://www.w3.org/1999/xlink"><clipPath id="p.0"><path d="m0 0l490.65878 0l0 721.8268l-490.65878 0l0 -721.8268z" clip-rule="nonzero"></path></clipPath><g clip-path="url(#p.0)"><path fill="#000000" fill-opacity="0.0" d="m0 0l490.65878 0l0 721.8268l-490.65878 0z" fill-rule="nonzero"></path><path fill="#000000" fill-opacity="0.0" d="m56.0 56.0l280.0 0" fill-rule="nonzero"></path><path stroke="#666666" stroke-width="2.0" stroke-linejoin="round" stroke-linecap="butt" d="m56.0 56.0l268.0 0" fill-rule="evenodd"></path><path fill="#666666" stroke="#666666" stroke-width="2.0" stroke-linecap="butt" d="m324.0 59.303463l9.076202 -3.303463l-9.076202 -3.303463z" fill-rule="evenodd"></path><path fill="#000000" fill-opacity="0.0" d="m56.0 48.0l0 16.0" fill-rule="nonzero"></path><path stroke="#666666" stroke-width="2.0" stroke-linejoin="round" stroke-linecap="butt" d="m56.0 48.0l0 16.0" fill-rule="nonzero"></path><path fill="#000000" fill-opacity="0.0" d="m41.5 75.968506l16.0 0.03149414l0 24.0l-16.0 -0.03149414z" fill-rule="nonzero"></path><path fill="#434343" d="m53.21093 95.24222q0 1.1718826 -0.234375 2.1401672q-0.234375 0.96829224 -0.7187462 1.6548386q-0.46875 0.6865845 -1.171875 1.0758209q-0.703125 0.37361908 -1.6562462 0.37174225q-0.828125 -0.0016326904 -1.4999962 -0.31545258q-0.671875 -0.3138275 -1.15625 -0.9554062q-0.4687462 -0.64154816 -0.7343712 -1.6264496q-0.25 -1.0004883 -0.25 -2.359871q0 -1.171875 0.234375 -2.1401672q0.25 -0.9682617 0.7187462 -1.6548386q0.46875 -0.68657684 1.171875 -1.0601959q0.7187462 -0.38920593 1.6718712 -0.3873291q0.8124962 0.0015945435 1.4843712 0.31542206q0.671875 0.3138199 1.140625 0.95536804q0.4843712 0.6415787 0.7343712 1.6420746q0.265625 0.9849014 0.265625 2.3442764zm-1.3749962 0.044166565q0 -0.265625 -0.015625 -0.5156555q-0.015625 -0.26565552 -0.046875 -0.51571655l-4.3124924 3.194641q0.109375 0.40647125 0.28125 0.75055695q0.1875 0.3441162 0.4375 0.5946121q0.2656212 0.25052643 0.5781212 0.39176178q0.328125 0.1256485 0.75 0.1264801q0.53125 0.001045227 0.9531212 -0.24812317q0.4375 -0.2647705 0.734375 -0.76418304q0.3125 -0.51501465 0.46875 -1.2647018q0.171875 -0.7496643 0.171875 -1.7496719zm-4.6718674 -0.10294342q0 0.25 0 0.5q0.015625 0.23440552 0.03125 0.45318604l4.3281174 -3.1789856q-0.125 -0.40649414 -0.3125 -0.734993q-0.171875 -0.3284607 -0.421875 -0.5633316q-0.25 -0.23486328 -0.5781212 -0.36051178q-0.3125 -0.14123535 -0.703125 -0.14200592q-0.53125 -0.001045227 -0.96875 0.26371765q-0.4374962 0.24913788 -0.7499962 0.7641525q-0.296875 0.49941254 -0.46875 1.2647018q-0.15625 0.7496948 -0.15625 1.7340698z" fill-rule="nonzero"></path><path fill="#000000" fill-opacity="0.0" d="m72.0 52.285713l0 8.0" fill-rule="nonzero"></path><path stroke="#666666" stroke-width="2.0" stroke-linejoin="round" stroke-linecap="butt" d="m72.0 52.285713l0 8.0" fill-rule="nonzero"></path><path fill="#000000" fill-opacity="0.0" d="m88.0 52.285713l0 8.0" fill-rule="nonzero"></path><path stroke="#666666" stroke-width="2.0" stroke-linejoin="round" stroke-linecap="butt" d="m88.0 52.285713l0 8.0" fill-rule="nonzero"></path><path fill="#000000" fill-opacity="0.0" d="m104.0 52.285713l0 8.0" fill-rule="nonzero"></path><path stroke="#666666" stroke-width="2.0" stroke-linejoin="round" stroke-linecap="butt" d="m104.0 52.285713l0 8.0" fill-rule="nonzero"></path><path fill="#000000" fill-opacity="0.0" d="m120.0 52.285713l0 8.0" fill-rule="nonzero"></path><path stroke="#666666" stroke-width="2.0" stroke-linejoin="round" stroke-linecap="butt" d="m120.0 52.285713l0 8.0" fill-rule="nonzero"></path><path fill="#000000" fill-opacity="0.0" d="m152.0 52.285713l0 8.0" fill-rule="nonzero"></path><path stroke="#666666" stroke-width="2.0" stroke-linejoin="round" stroke-linecap="butt" d="m152.0 52.285713l0 8.0" fill-rule="nonzero"></path><path fill="#000000" fill-opacity="0.0" d="m168.0 52.285713l0 8.0" fill-rule="nonzero"></path><path stroke="#666666" stroke-width="2.0" stroke-linejoin="round" stroke-linecap="butt" d="m168.0 52.285713l0 8.0" fill-rule="nonzero"></path><path fill="#000000" fill-opacity="0.0" d="m184.0 52.285713l0 8.0" fill-rule="nonzero"></path><path stroke="#666666" stroke-width="2.0" stroke-linejoin="round" stroke-linecap="butt" d="m184.0 52.285713l0 8.0" fill-rule="nonzero"></path><path fill="#000000" fill-opacity="0.0" d="m200.0 52.285713l0 8.0" fill-rule="nonzero"></path><path stroke="#666666" stroke-width="2.0" stroke-linejoin="round" stroke-linecap="butt" d="m200.0 52.285713l0 8.0" fill-rule="nonzero"></path><path fill="#000000" fill-opacity="0.0" d="m232.0 52.285713l0 8.0" fill-rule="nonzero"></path><path stroke="#666666" stroke-width="2.0" stroke-linejoin="round" stroke-linecap="butt" d="m232.0 52.285713l0 8.0" fill-rule="nonzero"></path><path fill="#000000" fill-opacity="0.0" d="m248.0 52.285713l0 8.0" fill-rule="nonzero"></path><path stroke="#666666" stroke-width="2.0" stroke-linejoin="round" stroke-linecap="butt" d="m248.0 52.285713l0 8.0" fill-rule="nonzero"></path><path fill="#000000" fill-opacity="0.0" d="m264.0 52.285713l0 8.0" fill-rule="nonzero"></path><path stroke="#666666" stroke-width="2.0" stroke-linejoin="round" stroke-linecap="butt" d="m264.0 52.285713l0 8.0" fill-rule="nonzero"></path><path fill="#000000" fill-opacity="0.0" d="m280.0 52.285713l0 8.0" fill-rule="nonzero"></path><path stroke="#666666" stroke-width="2.0" stroke-linejoin="round" stroke-linecap="butt" d="m280.0 52.285713l0 8.0" fill-rule="nonzero"></path><path fill="#000000" fill-opacity="0.0" d="m312.0 52.285713l0 8.0" fill-rule="nonzero"></path><path stroke="#666666" stroke-width="2.0" stroke-linejoin="round" stroke-linecap="butt" d="m312.0 52.285713l0 8.0" fill-rule="nonzero"></path><path fill="#000000" fill-opacity="0.0" d="m136.0 48.0l0 16.0" fill-rule="nonzero"></path><path stroke="#666666" stroke-width="2.0" stroke-linejoin="round" stroke-linecap="butt" d="m136.0 48.0l0 16.0" fill-rule="nonzero"></path><path fill="#000000" fill-opacity="0.0" d="m216.0 48.0l0 16.0" fill-rule="nonzero"></path><path stroke="#666666" stroke-width="2.0" stroke-linejoin="round" stroke-linecap="butt" d="m216.0 48.0l0 16.0" fill-rule="nonzero"></path><path fill="#000000" fill-opacity="0.0" d="m296.0 48.0l0 16.0" fill-rule="nonzero"></path><path stroke="#666666" stroke-width="2.0" stroke-linejoin="round" stroke-linecap="butt" d="m296.0 48.0l0 16.0" fill-rule="nonzero"></path><path fill="#000000" d="m132.0 56.0l0 0c0 -2.2091408 1.790863 -4.0 4.0 -4.0l0 0c1.0608673 0 2.0782776 0.42142868 2.8284302 1.1715736c0.7501373 0.75014496 1.1715698 1.767559 1.1715698 2.8284264l0 0c0 2.2091408 -1.790863 4.0 -4.0 4.0l0 0c-2.209137 0 -4.0 -1.7908592 -4.0 -4.0z" fill-rule="nonzero"></path><path fill="#000000" d="m212.0 56.0l0 0c0 -2.2091408 1.790863 -4.0 4.0 -4.0l0 0c1.0608673 0 2.0782776 0.42142868 2.8284302 1.1715736c0.7501373 0.75014496 1.1715698 1.767559 1.1715698 2.8284264l0 0c0 2.2091408 -1.790863 4.0 -4.0 4.0l0 0c-2.209137 0 -4.0 -1.7908592 -4.0 -4.0z" fill-rule="nonzero"></path><path fill="#000000" fill-opacity="0.0" d="m184.0 72.0l0 48.0" fill-rule="nonzero"></path><path stroke="#000000" stroke-width="2.0" stroke-linejoin="round" stroke-linecap="butt" d="m184.0 72.0l0 36.0" fill-rule="evenodd"></path><path fill="#000000" stroke="#000000" stroke-width="2.0" stroke-linecap="butt" d="m180.69653 108.0l3.3034668 9.076195l3.3034668 -9.076195z" fill-rule="evenodd"></path><path fill="#000000" fill-opacity="0.0" d="m184.0 70.3937l48.0 0l0 33.6063l-48.0 0z" fill-rule="nonzero"></path><path fill="#000000" d="m197.65625 89.32932l-2.75 0l0 -1.328125l4.390625 0l0 7.96875l2.765625 0l0 1.34375l-7.46875 0l0 -1.34375l3.0625 0l0 -6.640625zm0.5625 -5.234375q0.28125 0 0.5 0.09375q0.234375 0.09375 0.40625 0.28125q0.171875 0.171875 0.265625 0.40625q0.109375 0.21875 0.109375 0.484375q0 0.265625 -0.109375 0.5q-0.09375 0.234375 -0.265625 0.40625q-0.171875 0.171875 -0.40625 0.28125q-0.21875 0.09375 -0.5 0.09375q-0.265625 0 -0.5 -0.09375q-0.234375 -0.109375 -0.40625 -0.28125q-0.171875 -0.171875 -0.265625 -0.40625q-0.09375 -0.234375 -0.09375 -0.5q0 -0.265625 0.09375 -0.484375q0.09375 -0.234375 0.265625 -0.40625q0.171875 -0.1875 0.40625 -0.28125q0.234375 -0.09375 0.5 -0.09375zm6.0541687 8.75q0 -1.1875 0.3125 -2.109375q0.328125 -0.921875 0.921875 -1.546875q0.609375 -0.640625 1.4375 -0.96875q0.84375 -0.328125 1.875 -0.328125q0.453125 0 0.875 0.0625q0.4375 0.046875 0.859375 0.171875l0 -3.921875l1.625 0l0 13.109375l-1.453125 0l-0.0625 -1.765625q-0.671875 0.984375 -1.46875 1.46875q-0.78125 0.46875 -1.703125 0.46875q-0.796875 0 -1.40625 -0.328125q-0.59375 -0.34375 -1.0 -0.953125q-0.40625 -0.609375 -0.609375 -1.453125q-0.203125 -0.859375 -0.203125 -1.90625zm1.640625 -0.09375q0 1.6875 0.5 2.515625q0.5 0.828125 1.40625 0.828125q0.609375 0 1.296875 -0.546875q0.6875 -0.546875 1.4375 -1.625l0 -4.3125q-0.40625 -0.1875 -0.890625 -0.28125q-0.484375 -0.109375 -0.953125 -0.109375q-1.3125 0 -2.0625 0.859375q-0.734375 0.84375 -0.734375 2.671875z" fill-rule="nonzero"></path><path fill="#000000" fill-opacity="0.0" d="m56.0 136.0l280.0 0" fill-rule="nonzero"></path><path stroke="#666666" stroke-width="2.0" stroke-linejoin="round" stroke-linecap="butt" d="m56.0 136.0l268.0 0" fill-rule="evenodd"></path><path fill="#666666" stroke="#666666" stroke-width="2.0" stroke-linecap="butt" d="m324.0 139.30347l9.076202 -3.3034668l-9.076202 -3.3034668z" fill-rule="evenodd"></path><path fill="#000000" fill-opacity="0.0" d="m56.0 128.0l0 16.0" fill-rule="nonzero"></path><path stroke="#666666" stroke-width="2.0" stroke-linejoin="round" stroke-linecap="butt" d="m56.0 128.0l0 16.0" fill-rule="nonzero"></path><path fill="#000000" fill-opacity="0.0" d="m72.0 132.28572l0 8.0" fill-rule="nonzero"></path><path stroke="#666666" stroke-width="2.0" stroke-linejoin="round" stroke-linecap="butt" d="m72.0 132.28572l0 8.0" fill-rule="nonzero"></path><path fill="#000000" fill-opacity="0.0" d="m88.0 132.28572l0 8.0" fill-rule="nonzero"></path><path stroke="#666666" stroke-width="2.0" stroke-linejoin="round" stroke-linecap="butt" d="m88.0 132.28572l0 8.0" fill-rule="nonzero"></path><path fill="#000000" fill-opacity="0.0" d="m104.0 132.28572l0 8.0" fill-rule="nonzero"></path><path stroke="#666666" stroke-width="2.0" stroke-linejoin="round" stroke-linecap="butt" d="m104.0 132.28572l0 8.0" fill-rule="nonzero"></path><path fill="#000000" fill-opacity="0.0" d="m120.0 132.28572l0 8.0" fill-rule="nonzero"></path><path stroke="#666666" stroke-width="2.0" stroke-linejoin="round" stroke-linecap="butt" d="m120.0 132.28572l0 8.0" fill-rule="nonzero"></path><path fill="#000000" fill-opacity="0.0" d="m152.0 132.28572l0 8.0" fill-rule="nonzero"></path><path stroke="#666666" stroke-width="2.0" stroke-linejoin="round" stroke-linecap="butt" d="m152.0 132.28572l0 8.0" fill-rule="nonzero"></path><path fill="#000000" fill-opacity="0.0" d="m168.0 132.28572l0 8.0" fill-rule="nonzero"></path><path stroke="#666666" stroke-width="2.0" stroke-linejoin="round" stroke-linecap="butt" d="m168.0 132.28572l0 8.0" fill-rule="nonzero"></path><path fill="#000000" fill-opacity="0.0" d="m184.0 132.28572l0 8.0" fill-rule="nonzero"></path><path stroke="#666666" stroke-width="2.0" stroke-linejoin="round" stroke-linecap="butt" d="m184.0 132.28572l0 8.0" fill-rule="nonzero"></path><path fill="#000000" fill-opacity="0.0" d="m200.0 132.28572l0 8.0" fill-rule="nonzero"></path><path stroke="#666666" stroke-width="2.0" stroke-linejoin="round" stroke-linecap="butt" d="m200.0 132.28572l0 8.0" fill-rule="nonzero"></path><path fill="#000000" fill-opacity="0.0" d="m232.0 132.28572l0 8.0" fill-rule="nonzero"></path><path stroke="#666666" stroke-width="2.0" stroke-linejoin="round" stroke-linecap="butt" d="m232.0 132.28572l0 8.0" fill-rule="nonzero"></path><path fill="#000000" fill-opacity="0.0" d="m248.0 132.28572l0 8.0" fill-rule="nonzero"></path><path stroke="#666666" stroke-width="2.0" stroke-linejoin="round" stroke-linecap="butt" d="m248.0 132.28572l0 8.0" fill-rule="nonzero"></path><path fill="#000000" fill-opacity="0.0" d="m264.0 132.28572l0 8.0" fill-rule="nonzero"></path><path stroke="#666666" stroke-width="2.0" stroke-linejoin="round" stroke-linecap="butt" d="m264.0 132.28572l0 8.0" fill-rule="nonzero"></path><path fill="#000000" fill-opacity="0.0" d="m280.0 132.28572l0 8.0" fill-rule="nonzero"></path><path stroke="#666666" stroke-width="2.0" stroke-linejoin="round" stroke-linecap="butt" d="m280.0 132.28572l0 8.0" fill-rule="nonzero"></path><path fill="#000000" fill-opacity="0.0" d="m312.0 132.28572l0 8.0" fill-rule="nonzero"></path><path stroke="#666666" stroke-width="2.0" stroke-linejoin="round" stroke-linecap="butt" d="m312.0 132.28572l0 8.0" fill-rule="nonzero"></path><path fill="#000000" fill-opacity="0.0" d="m136.0 128.0l0 16.0" fill-rule="nonzero"></path><path stroke="#666666" stroke-width="2.0" stroke-linejoin="round" stroke-linecap="butt" d="m136.0 128.0l0 16.0" fill-rule="nonzero"></path><path fill="#000000" fill-opacity="0.0" d="m216.0 128.0l0 16.0" fill-rule="nonzero"></path><path stroke="#666666" stroke-width="2.0" stroke-linejoin="round" stroke-linecap="butt" d="m216.0 128.0l0 16.0" fill-rule="nonzero"></path><path fill="#000000" fill-opacity="0.0" d="m296.0 128.0l0 16.0" fill-rule="nonzero"></path><path stroke="#666666" stroke-width="2.0" stroke-linejoin="round" stroke-linecap="butt" d="m296.0 128.0l0 16.0" fill-rule="nonzero"></path><path fill="#000000" d="m132.0 136.0l0 0c0 -2.209137 1.790863 -4.0 4.0 -4.0l0 0c1.0608673 0 2.0782776 0.4214325 2.8284302 1.1715698c0.7501373 0.7501526 1.1715698 1.7675629 1.1715698 2.8284302l0 0c0 2.209137 -1.790863 4.0 -4.0 4.0l0 0c-2.209137 0 -4.0 -1.790863 -4.0 -4.0z" fill-rule="nonzero"></path><path fill="#000000" d="m212.0 136.0l0 0c0 -2.209137 1.790863 -4.0 4.0 -4.0l0 0c1.0608673 0 2.0782776 0.4214325 2.8284302 1.1715698c0.7501373 0.7501526 1.1715698 1.7675629 1.1715698 2.8284302l0 0c0 2.209137 -1.790863 4.0 -4.0 4.0l0 0c-2.209137 0 -4.0 -1.790863 -4.0 -4.0z" fill-rule="nonzero"></path><path fill="#000000" fill-opacity="0.0" d="m112.0 24.0l32.0 0l0 32.0l-32.0 0z" fill-rule="nonzero"></path><path fill="#000000" d="m124.19434 37.849373l0.859375 0l0.015625 0.984375q0.484375 -0.5625 0.953125 -0.8125q0.46875 -0.265625 0.9375 -0.265625q0.828125 0 1.2656174 0.546875q0.4375 0.53125 0.40625 1.609375l-0.9531174 0q0.015625 -0.71875 -0.203125 -1.03125q-0.21875 -0.328125 -0.65625 -0.328125q-0.1875 0 -0.375 0.078125q-0.1875 0.0625 -0.390625 0.21875q-0.203125 0.140625 -0.4375 0.375q-0.21875 0.21875 -0.46875 0.546875l0 3.46875l-0.953125 0l0 -5.390625z" fill-rule="nonzero"></path><path fill="#000000" d="m132.38132 47.239998l-2.796875 0l0 -0.546875l1.140625 0l0 -3.265625l-1.0625 0.578125l-0.21875 -0.5l1.421875 -0.75l0.515625 0l0 3.9375l1.0 0l0 0.546875z" fill-rule="nonzero"></path><path fill="#000000" fill-opacity="0.0" d="m208.0 24.0l32.0 0l0 32.0l-32.0 0z" fill-rule="nonzero"></path><path fill="#000000" d="m220.19434 37.849373l0.859375 0l0.015625 0.984375q0.484375 -0.5625 0.953125 -0.8125q0.46875 -0.265625 0.9375 -0.265625q0.828125 0 1.265625 0.546875q0.4375 0.53125 0.40625 1.609375l-0.953125 0q0.015625 -0.71875 -0.203125 -1.03125q-0.21875 -0.328125 -0.65625 -0.328125q-0.1875 0 -0.375 0.078125q-0.1875 0.0625 -0.390625 0.21875q-0.203125 0.140625 -0.4375 0.375q-0.21875 0.21875 -0.46875 0.546875l0 3.46875l-0.953125 0l0 -5.390625z" fill-rule="nonzero"></path><path fill="#000000" d="m228.42819 47.239998l-2.953125 0l0 -0.53125l1.15625 -1.15625q0.28125 -0.28125 0.453125 -0.484375q0.1875 -0.203125 0.28125 -0.359375q0.109375 -0.171875 0.140625 -0.328125q0.03125 -0.15625 0.03125 -0.328125q0 -0.15625 -0.046875 -0.296875q-0.046875 -0.15625 -0.140625 -0.265625q-0.078125 -0.125 -0.234375 -0.1875q-0.140625 -0.0625 -0.34375 -0.0625q-0.296875 0 -0.53125 0.125q-0.21875 0.125 -0.421875 0.328125l-0.328125 -0.390625q0.25 -0.265625 0.578125 -0.421875q0.34375 -0.171875 0.78125 -0.171875q0.296875 0 0.53125 0.09375q0.25 0.09375 0.421875 0.265625q0.1875 0.15625 0.28125 0.40625q0.09375 0.234375 0.09375 0.53125q0 0.265625 -0.078125 0.484375q-0.0625 0.21875 -0.203125 0.4375q-0.125 0.21875 -0.34375 0.453125q-0.203125 0.21875 -0.5 0.5l-0.796875 0.796875l2.171875 0l0 0.5625z" fill-rule="nonzero"></path><path fill="#000000" fill-opacity="0.0" d="m136.0 44.5l0 0c0 -4.4182777 0.5969238 -8.0 1.3332825 -8.0l37.333435 0c0.73635864 0 1.3332825 -3.5817223 1.3332825 -8.0l0 0c0 4.4182777 0.5969238 8.0 1.3332825 8.0l37.333435 0c0.73635864 0 1.3332825 3.5817223 1.3332825 8.0z" fill-rule="nonzero"></path><path fill="#000000" fill-opacity="0.0" d="m136.0 44.5l0 0c0 -4.4182777 0.5969238 -8.0 1.3332825 -8.0l37.333435 0c0.73635864 0 1.3332825 -3.5817223 1.3332825 -8.0l0 0c0 4.4182777 0.5969238 8.0 1.3332825 8.0l37.333435 0c0.73635864 0 1.3332825 3.5817223 1.3332825 8.0" fill-rule="nonzero"></path><path stroke="#666666" stroke-width="2.0" stroke-linejoin="round" stroke-linecap="butt" d="m136.0 44.5l0 0c0 -4.4182777 0.5969238 -8.0 1.3332825 -8.0l37.333435 0c0.73635864 0 1.3332825 -3.5817223 1.3332825 -8.0l0 0c0 4.4182777 0.5969238 8.0 1.3332825 8.0l37.333435 0c0.73635864 0 1.3332825 3.5817223 1.3332825 8.0" fill-rule="nonzero"></path><path fill="#000000" fill-opacity="0.0" d="m216.0 148.0l0 0c0 4.418274 -0.5969238 8.0 -1.3332825 8.0l-37.333435 0c-0.73635864 0 -1.3332825 3.581726 -1.3332825 8.0l0 0c0 -4.418274 -0.5969238 -8.0 -1.3332825 -8.0l-37.333435 0c-0.73635864 0 -1.3332825 -3.581726 -1.3332825 -8.0z" fill-rule="nonzero"></path><path fill="#000000" fill-opacity="0.0" d="m216.0 148.0l0 0c0 4.418274 -0.5969238 8.0 -1.3332825 8.0l-37.333435 0c-0.73635864 0 -1.3332825 3.581726 -1.3332825 8.0l0 0c0 -4.418274 -0.5969238 -8.0 -1.3332825 -8.0l-37.333435 0c-0.73635864 0 -1.3332825 -3.581726 -1.3332825 -8.0" fill-rule="nonzero"></path><path stroke="#666666" stroke-width="2.0" stroke-linejoin="round" stroke-linecap="butt" d="m216.0 148.0l0 0c0 4.418274 -0.5969238 8.0 -1.3332825 8.0l-37.333435 0c-0.73635864 0 -1.3332825 3.581726 -1.3332825 8.0l0 0c0 -4.418274 -0.5969238 -8.0 -1.3332825 -8.0l-37.333435 0c-0.73635864 0 -1.3332825 -3.581726 -1.3332825 -8.0" fill-rule="nonzero"></path><path fill="#000000" fill-opacity="0.0" d="m112.0 127.5l32.0 0l0 32.0l-32.0 0z" fill-rule="nonzero"></path><path fill="#000000" d="m124.19434 141.34938l0.859375 0l0.015625 0.984375q0.484375 -0.5625 0.953125 -0.8125q0.46875 -0.265625 0.9375 -0.265625q0.828125 0 1.2656174 0.546875q0.4375 0.53125 0.40625 1.609375l-0.9531174 0q0.015625 -0.71875 -0.203125 -1.03125q-0.21875 -0.328125 -0.65625 -0.328125q-0.1875 0 -0.375 0.078125q-0.1875 0.0625 -0.390625 0.21875q-0.203125 0.140625 -0.4375 0.375q-0.21875 0.21875 -0.46875 0.546875l0 3.46875l-0.953125 0l0 -5.390625z" fill-rule="nonzero"></path><path fill="#000000" d="m132.38132 150.74l-2.796875 0l0 -0.546875l1.140625 0l0 -3.265625l-1.0625 0.578125l-0.21875 -0.5l1.421875 -0.75l0.515625 0l0 3.9375l1.0 0l0 0.546875z" fill-rule="nonzero"></path><path fill="#000000" fill-opacity="0.0" d="m208.0 127.5l32.0 0l0 32.0l-32.0 0z" fill-rule="nonzero"></path><path fill="#000000" d="m220.19434 141.34938l0.859375 0l0.015625 0.984375q0.484375 -0.5625 0.953125 -0.8125q0.46875 -0.265625 0.9375 -0.265625q0.828125 0 1.265625 0.546875q0.4375 0.53125 0.40625 1.609375l-0.953125 0q0.015625 -0.71875 -0.203125 -1.03125q-0.21875 -0.328125 -0.65625 -0.328125q-0.1875 0 -0.375 0.078125q-0.1875 0.0625 -0.390625 0.21875q-0.203125 0.140625 -0.4375 0.375q-0.21875 0.21875 -0.46875 0.546875l0 3.46875l-0.953125 0l0 -5.390625z" fill-rule="nonzero"></path><path fill="#000000" d="m228.42819 150.74l-2.953125 0l0 -0.53125l1.15625 -1.15625q0.28125 -0.28125 0.453125 -0.484375q0.1875 -0.203125 0.28125 -0.359375q0.109375 -0.171875 0.140625 -0.328125q0.03125 -0.15625 0.03125 -0.328125q0 -0.15625 -0.046875 -0.296875q-0.046875 -0.15625 -0.140625 -0.265625q-0.078125 -0.125 -0.234375 -0.1875q-0.140625 -0.0625 -0.34375 -0.0625q-0.296875 0 -0.53125 0.125q-0.21875 0.125 -0.421875 0.328125l-0.328125 -0.390625q0.25 -0.265625 0.578125 -0.421875q0.34375 -0.171875 0.78125 -0.171875q0.296875 0 0.53125 0.09375q0.25 0.09375 0.421875 0.265625q0.1875 0.15625 0.28125 0.40625q0.09375 0.234375 0.09375 0.53125q0 0.265625 -0.078125 0.484375q-0.0625 0.21875 -0.203125 0.4375q-0.125 0.21875 -0.34375 0.453125q-0.203125 0.21875 -0.5 0.5l-0.796875 0.796875l2.171875 0l0 0.5625z" fill-rule="nonzero"></path><path fill="#000000" fill-opacity="0.0" d="m160.0 -8.0l56.0 0l0 24.0l-56.0 0z" fill-rule="nonzero"></path><path fill="#000000" d="m170.01562 14.451248q0 -1.1875 0.3125 -2.109375q0.328125 -0.921875 0.921875 -1.546875q0.609375 -0.640625 1.4375 -0.96875q0.84375 -0.328125 1.875 -0.328125q0.453125 0 0.875 0.0625q0.4375 0.046875 0.859375 0.171875l0 -3.921875l1.625 0l0 13.109375l-1.453125 0l-0.0625 -1.765625q-0.671875 0.984375 -1.46875 1.46875q-0.78125 0.46875 -1.703125 0.46875q-0.796875 0 -1.40625 -0.328125q-0.59375 -0.34375 -1.0 -0.953125q-0.40625 -0.609375 -0.609375 -1.453125q-0.203125 -0.859375 -0.203125 -1.90625zm1.640625 -0.09375q0 1.6875 0.5 2.515625q0.5 0.828125 1.40625 0.828125q0.609375 0 1.296875 -0.546875q0.6875 -0.546875 1.4375 -1.625l0 -4.3125q-0.40625 -0.1875 -0.890625 -0.28125q-0.484375 -0.109375 -0.953125 -0.109375q-1.3125 0 -2.0625 0.859375q-0.734375 0.84375 -0.734375 2.671875z" fill-rule="nonzero"></path><path fill="#000000" d="m182.1948 20.873123l-1.734375 0l0 -0.84375l2.765625 0l0 5.046875l1.75 0l0 0.84375l-4.703125 0l0 -0.84375l1.921875 0l0 -4.203125zm0.359375 -3.296875q0.171875 0 0.3125 0.0625q0.15625 0.046875 0.265625 0.171875q0.109375 0.109375 0.171875 0.25q0.0625 0.140625 0.0625 0.3125q0 0.15625 -0.0625 0.3125q-0.0625 0.140625 -0.171875 0.25q-0.109375 0.109375 -0.265625 0.171875q-0.140625 0.0625 -0.3125 0.0625q-0.171875 0 -0.3125 -0.0625q-0.140625 -0.0625 -0.25 -0.171875q-0.109375 -0.109375 -0.171875 -0.25q-0.0625 -0.15625 -0.0625 -0.3125q0 -0.171875 0.0625 -0.3125q0.0625 -0.140625 0.171875 -0.25q0.109375 -0.125 0.25 -0.171875q0.140625 -0.0625 0.3125 -0.0625zm4.478714 2.453125l0.90625 0l0.046875 0.953125q0.25 -0.296875 0.484375 -0.5q0.25 -0.203125 0.484375 -0.328125q0.234375 -0.125 0.46875 -0.171875q0.234375 -0.046875 0.5 -0.046875q0.90625 0 1.375 0.53125q0.46875 0.53125 0.46875 1.609375l0 3.84375l-1.03125 0l0 -3.75q0 -0.703125 -0.265625 -1.03125q-0.25 -0.328125 -0.75 -0.328125q-0.1875 0 -0.375 0.0625q-0.171875 0.046875 -0.375 0.1875q-0.1875 0.140625 -0.421875 0.375q-0.21875 0.234375 -0.5 0.578125l0 3.90625l-1.015625 0l0 -5.890625z" fill-rule="nonzero"></path><path fill="#000000" fill-opacity="0.0" d="m152.0 152.0l56.0 0l0 24.0l-56.0 0z" fill-rule="nonzero"></path><path fill="#000000" d="m162.01562 174.45125q0 -1.1875 0.3125 -2.109375q0.328125 -0.921875 0.921875 -1.546875q0.609375 -0.640625 1.4375 -0.96875q0.84375 -0.328125 1.875 -0.328125q0.453125 0 0.875 0.0625q0.4375 0.046875 0.859375 0.171875l0 -3.921875l1.625 0l0 13.109375l-1.453125 0l-0.0625 -1.765625q-0.671875 0.984375 -1.46875 1.46875q-0.78125 0.46875 -1.703125 0.46875q-0.796875 0 -1.40625 -0.328125q-0.59375 -0.34375 -1.0 -0.953125q-0.40625 -0.609375 -0.609375 -1.453125q-0.203125 -0.859375 -0.203125 -1.90625zm1.640625 -0.09375q0 1.6875 0.5 2.515625q0.5 0.828125 1.40625 0.828125q0.609375 0 1.296875 -0.546875q0.6875 -0.546875 1.4375 -1.625l0 -4.3125q-0.40625 -0.1875 -0.890625 -0.28125q-0.484375 -0.109375 -0.953125 -0.109375q-1.3125 0 -2.0625 0.859375q-0.734375 0.84375 -0.734375 2.671875z" fill-rule="nonzero"></path><path fill="#000000" d="m177.3198 182.93562q0 0.6875 -0.203125 1.265625q-0.1875 0.5625 -0.546875 0.96875q-0.359375 0.40625 -0.890625 0.640625q-0.515625 0.21875 -1.1875 0.21875q-0.625 0 -1.125 -0.1875q-0.5 -0.203125 -0.859375 -0.578125q-0.34375 -0.390625 -0.53125 -0.953125q-0.171875 -0.5625 -0.171875 -1.296875q0 -0.6875 0.1875 -1.25q0.1875 -0.5625 0.546875 -0.96875q0.375 -0.40625 0.890625 -0.625q0.53125 -0.234375 1.1875 -0.234375q0.625 0 1.125 0.203125q0.515625 0.1875 0.859375 0.5625q0.34375 0.375 0.53125 0.9375q0.1875 0.5625 0.1875 1.296875zm-1.046875 0.046875q0 -0.546875 -0.125 -0.953125q-0.109375 -0.40625 -0.34375 -0.671875q-0.21875 -0.28125 -0.546875 -0.421875q-0.3125 -0.140625 -0.703125 -0.140625q-0.453125 0 -0.78125 0.1875q-0.328125 0.171875 -0.53125 0.46875q-0.203125 0.296875 -0.3125 0.703125q-0.09375 0.390625 -0.09375 0.828125q0 0.546875 0.125 0.953125q0.125 0.40625 0.34375 0.6875q0.21875 0.265625 0.53125 0.40625q0.328125 0.140625 0.71875 0.140625q0.453125 0 0.78125 -0.171875q0.328125 -0.1875 0.53125 -0.484375q0.21875 -0.3125 0.3125 -0.703125q0.09375 -0.390625 0.09375 -0.828125zm7.494339 2.9375l-0.921875 0l-0.03125 -0.953125q-0.265625 0.3125 -0.5 0.515625q-0.234375 0.203125 -0.46875 0.328125q-0.234375 0.109375 -0.484375 0.15625q-0.234375 0.0625 -0.5 0.0625q-0.90625 0 -1.375 -0.53125q-0.453125 -0.546875 -0.453125 -1.625l0 -3.84375l1.015625 0l0 3.765625q0 1.359375 1.03125 1.359375q0.1875 0 0.359375 -0.046875q0.171875 -0.0625 0.375 -0.203125q0.203125 -0.140625 0.421875 -0.375q0.21875 -0.234375 0.5 -0.59375l0 -3.90625l1.03125 0l0 5.890625zm6.838089 -0.078125q-0.34375 0.078125 -0.71875 0.109375q-0.359375 0.046875 -0.734375 0.046875q-1.109375 0 -1.65625 -0.5q-0.546875 -0.5 -0.546875 -1.53125l0 -3.078125l-1.640625 0l0 -0.859375l1.640625 0l0 -1.609375l1.015625 -0.265625l0 1.875l2.640625 0l0 0.859375l-2.640625 0l0 2.984375q0 0.640625 0.328125 0.953125q0.34375 0.3125 1.0 0.3125q0.28125 0 0.609375 -0.046875q0.34375 -0.046875 0.703125 -0.140625l0 0.890625z" fill-rule="nonzero"></path><path fill="#000000" fill-opacity="0.0" d="m280.0 70.3937l288.0 0l0 33.6063l-288.0 0z" fill-rule="nonzero"></path><path fill="#000000" d="m290.01562 92.84495q0 -1.1875 0.3125 -2.109375q0.328125 -0.921875 0.921875 -1.546875q0.609375 -0.640625 1.4375 -0.96875q0.84375 -0.328125 1.875 -0.328125q0.453125 0 0.875 0.0625q0.4375 0.046875 0.859375 0.171875l0 -3.921875l1.625 0l0 13.109375l-1.453125 0l-0.0625 -1.765625q-0.671875 0.984375 -1.46875 1.46875q-0.78125 0.46875 -1.703125 0.46875q-0.796875 0 -1.40625 -0.328125q-0.59375 -0.34375 -1.0 -0.953125q-0.40625 -0.609375 -0.609375 -1.453125q-0.203125 -0.859375 -0.203125 -1.90625zm1.640625 -0.09375q0 1.6875 0.5 2.515625q0.5 0.828125 1.40625 0.828125q0.609375 0 1.296875 -0.546875q0.6875 -0.546875 1.4375 -1.625l0 -4.3125q-0.40625 -0.1875 -0.890625 -0.28125q-0.484375 -0.109375 -0.953125 -0.109375q-1.3125 0 -2.0625 0.859375q-0.734375 0.84375 -0.734375 2.671875z" fill-rule="nonzero"></path><path fill="#000000" d="m305.3198 101.32932q0 0.6875 -0.203125 1.265625q-0.1875 0.5625 -0.546875 0.96875q-0.359375 0.40625 -0.890625 0.640625q-0.515625 0.21875 -1.1875 0.21875q-0.625 0 -1.125 -0.1875q-0.5 -0.203125 -0.859375 -0.578125q-0.34375 -0.390625 -0.53125 -0.953125q-0.171875 -0.5625 -0.171875 -1.296875q0 -0.6875 0.1875 -1.25q0.1875 -0.5625 0.546875 -0.96875q0.375 -0.40625 0.890625 -0.625q0.53125 -0.234375 1.1875 -0.234375q0.625 0 1.125 0.203125q0.515625 0.1875 0.859375 0.5625q0.34375 0.375 0.53125 0.9375q0.1875 0.5625 0.1875 1.296875zm-1.046875 0.046875q0 -0.546875 -0.125 -0.953125q-0.109375 -0.40625 -0.34375 -0.671875q-0.21875 -0.28125 -0.546875 -0.421875q-0.3125 -0.140625 -0.703125 -0.140625q-0.453125 0 -0.78125 0.1875q-0.328125 0.171875 -0.53125 0.46875q-0.203125 0.296875 -0.3125 0.703125q-0.09375 0.390625 -0.09375 0.828125q0 0.546875 0.125 0.953125q0.125 0.40625 0.34375 0.6875q0.21875 0.265625 0.53125 0.40625q0.328125 0.140625 0.71875 0.140625q0.453125 0 0.78125 -0.171875q0.328125 -0.1875 0.53125 -0.484375q0.21875 -0.3125 0.3125 -0.703125q0.09375 -0.390625 0.09375 -0.828125zm7.4943542 2.9375l-0.921875 0l-0.03125 -0.953125q-0.265625 0.3125 -0.5 0.515625q-0.234375 0.203125 -0.46875 0.328125q-0.234375 0.109375 -0.484375 0.15625q-0.234375 0.0625 -0.5 0.0625q-0.90625 0 -1.375 -0.53125q-0.453125 -0.546875 -0.453125 -1.625l0 -3.84375l1.015625 0l0 3.765625q0 1.359375 1.03125 1.359375q0.1875 0 0.359375 -0.046875q0.171875 -0.0625 0.375 -0.203125q0.203125 -0.140625 0.421875 -0.375q0.21875 -0.234375 0.5 -0.59375l0 -3.90625l1.03125 0l0 5.890625zm6.8380737 -0.078125q-0.34375 0.078125 -0.71875 0.109375q-0.359375 0.046875 -0.734375 0.046875q-1.109375 0 -1.65625 -0.5q-0.546875 -0.5 -0.546875 -1.53125l0 -3.078125l-1.640625 0l0 -0.859375l1.640625 0l0 -1.609375l1.015625 -0.265625l0 1.875l2.640625 0l0 0.859375l-2.640625 0l0 2.984375q0 0.640625 0.328125 0.953125q0.34375 0.3125 1.0 0.3125q0.28125 0 0.609375 -0.046875q0.34375 -0.046875 0.703125 -0.140625l0 0.890625z" fill-rule="nonzero"></path><path fill="#000000" d="m328.99033 91.3137l-7.984375 0l0 -1.359375l7.984375 0l0 1.359375zm0 3.234375l-7.984375 0l0 -1.359375l7.984375 0l0 1.359375zm12.311462 -1.703125q0 -1.1875 0.3125 -2.109375q0.328125 -0.921875 0.921875 -1.546875q0.609375 -0.640625 1.4375 -0.96875q0.84375 -0.328125 1.875 -0.328125q0.453125 0 0.875 0.0625q0.4375 0.046875 0.859375 0.171875l0 -3.921875l1.625 0l0 13.109375l-1.453125 0l-0.0625 -1.765625q-0.671875 0.984375 -1.46875 1.46875q-0.78125 0.46875 -1.703125 0.46875q-0.796875 0 -1.40625 -0.328125q-0.59375 -0.34375 -1.0 -0.953125q-0.40625 -0.609375 -0.609375 -1.453125q-0.203125 -0.859375 -0.203125 -1.90625zm1.640625 -0.09375q0 1.6875 0.5 2.515625q0.5 0.828125 1.40625 0.828125q0.609375 0 1.296875 -0.546875q0.6875 -0.546875 1.4375 -1.625l0 -4.3125q-0.40625 -0.1875 -0.890625 -0.28125q-0.484375 -0.109375 -0.953125 -0.109375q-1.3125 0 -2.0625 0.859375q-0.734375 0.84375 -0.734375 2.671875z" fill-rule="nonzero"></path><path fill="#000000" d="m353.48096 99.26682l-1.734375 0l0 -0.84375l2.765625 0l0 5.046875l1.75 0l0 0.84375l-4.703125 0l0 -0.84375l1.921875 0l0 -4.203125zm0.359375 -3.296875q0.171875 0 0.3125 0.0625q0.15625 0.046875 0.265625 0.171875q0.109375 0.109375 0.171875 0.25q0.0625 0.140625 0.0625 0.3125q0 0.15625 -0.0625 0.3125q-0.0625 0.140625 -0.171875 0.25q-0.109375 0.109375 -0.265625 0.171875q-0.140625 0.0625 -0.3125 0.0625q-0.171875 0 -0.3125 -0.0625q-0.140625 -0.0625 -0.25 -0.171875q-0.109375 -0.109375 -0.171875 -0.25q-0.0625 -0.15625 -0.0625 -0.3125q0 -0.171875 0.0625 -0.3125q0.0625 -0.140625 0.171875 -0.25q0.109375 -0.125 0.25 -0.171875q0.140625 -0.0625 0.3125 -0.0625zm4.4786987 2.453125l0.90625 0l0.046875 0.953125q0.25 -0.296875 0.484375 -0.5q0.25 -0.203125 0.484375 -0.328125q0.234375 -0.125 0.46875 -0.171875q0.234375 -0.046875 0.5 -0.046875q0.90625 0 1.375 0.53125q0.46875 0.53125 0.46875 1.609375l0 3.84375l-1.03125 0l0 -3.75q0 -0.703125 -0.265625 -1.03125q-0.25 -0.328125 -0.75 -0.328125q-0.1875 0 -0.375 0.0625q-0.171875 0.046875 -0.375 0.1875q-0.1875 0.140625 -0.421875 0.375q-0.21875 0.234375 -0.5 0.578125l0 3.90625l-1.015625 0l0 -5.890625z" fill-rule="nonzero"></path><path fill="#000000" d="m383.69568 91.3137l-7.984375 0l0 -1.359375l7.984375 0l0 1.359375zm0 3.234375l-7.984375 0l0 -1.359375l7.984375 0l0 1.359375zm2.9760437 -6.46875l1.0 -1.03125l6.234375 5.203125l-6.234375 5.21875l-1.0 -1.03125l5.0625 -4.15625l-5.0625 -4.203125zm27.295837 8.890625q-0.625 0.234375 -1.296875 0.34375q-0.65625 0.125 -1.359375 0.125q-2.21875 0 -3.40625 -1.1875q-1.1875 -1.203125 -1.1875 -3.5q0 -1.109375 0.34375 -2.0q0.34375 -0.90625 0.953125 -1.546875q0.625 -0.640625 1.484375 -0.984375q0.875 -0.34375 1.90625 -0.34375q0.734375 0 1.359375 0.109375q0.625 0.09375 1.203125 0.3125l0 1.546875q-0.59375 -0.3125 -1.234375 -0.453125q-0.625 -0.15625 -1.28125 -0.15625q-0.625 0 -1.1875 0.25q-0.546875 0.234375 -0.96875 0.6875q-0.40625 0.4375 -0.65625 1.078125q-0.234375 0.640625 -0.234375 1.4375q0 1.6875 0.8125 2.53125q0.828125 0.84375 2.28125 0.84375q0.65625 0 1.265625 -0.140625q0.625 -0.15625 1.203125 -0.453125l0 1.5zm21.014587 -5.65625l-7.984375 0l0 -1.359375l7.984375 0l0 1.359375zm0 3.234375l-7.984375 0l0 -1.359375l7.984375 0l0 1.359375zm20.545837 2.765625l-7.609375 0l0 -1.5l3.109375 0l0 -8.859375l-2.90625 1.578125l-0.59375 -1.375l3.859375 -2.03125l1.4375 0l0 10.6875l2.703125 0l0 1.5z" fill-rule="nonzero"></path><path fill="#000000" fill-opacity="0.0" d="m56.0 328.0l280.0 0" fill-rule="nonzero"></path><path stroke="#666666" stroke-width="2.0" stroke-linejoin="round" stroke-linecap="butt" d="m56.0 328.0l268.0 0" fill-rule="evenodd"></path><path fill="#666666" stroke="#666666" stroke-width="2.0" stroke-linecap="butt" d="m324.0 331.30347l9.076202 -3.3034668l-9.076202 -3.3034668z" fill-rule="evenodd"></path><path fill="#000000" fill-opacity="0.0" d="m56.0 320.0l0 16.0" fill-rule="nonzero"></path><path stroke="#666666" stroke-width="2.0" stroke-linejoin="round" stroke-linecap="butt" d="m56.0 320.0l0 16.0" fill-rule="nonzero"></path><path fill="#000000" fill-opacity="0.0" d="m41.5 347.9685l16.0 0.03149414l0 24.0l-16.0 -0.03149414z" fill-rule="nonzero"></path><path fill="#434343" d="m53.21093 367.24222q0 1.171875 -0.234375 2.1401672q-0.234375 0.96829224 -0.7187462 1.6548462q-0.46875 0.6865845 -1.171875 1.0758057q-0.703125 0.3736267 -1.6562462 0.37173462q-0.828125 -0.0016174316 -1.4999962 -0.3154297q-0.671875 -0.31384277 -1.15625 -0.9554138q-0.4687462 -0.6415405 -0.7343712 -1.6264343q-0.25 -1.0005188 -0.25 -2.3598938q0 -1.171875 0.234375 -2.1401672q0.25 -0.9682617 0.7187462 -1.6548157q0.46875 -0.6865845 1.171875 -1.0602112q0.7187462 -0.3892212 1.6718712 -0.3873291q0.8124962 0.0015869141 1.4843712 0.3154297q0.671875 0.31381226 1.140625 0.9553528q0.4843712 0.64160156 0.7343712 1.6420898q0.265625 0.9848938 0.265625 2.3442688zm-1.3749962 0.044158936q0 -0.265625 -0.015625 -0.5156555q-0.015625 -0.26565552 -0.046875 -0.51571655l-4.3124924 3.194641q0.109375 0.40646362 0.28125 0.7505493q0.1875 0.34414673 0.4375 0.594635q0.2656212 0.2505188 0.5781212 0.39175415q0.328125 0.12564087 0.75 0.12646484q0.53125 0.0010681152 0.9531212 -0.24810791q0.4375 -0.2647705 0.734375 -0.7641907q0.3125 -0.51501465 0.46875 -1.2647095q0.171875 -0.7496643 0.171875 -1.7496643zm-4.6718674 -0.10293579q0 0.25 0 0.5q0.015625 0.23440552 0.03125 0.45318604l4.3281174 -3.1789856q-0.125 -0.40649414 -0.3125 -0.73498535q-0.171875 -0.3284607 -0.421875 -0.563324q-0.25 -0.2348938 -0.5781212 -0.36053467q-0.3125 -0.14123535 -0.703125 -0.14199829q-0.53125 -0.0010375977 -0.96875 0.2637024q-0.4374962 0.24914551 -0.7499962 0.76416016q-0.296875 0.49942017 -0.46875 1.2647095q-0.15625 0.7496948 -0.15625 1.7340698z" fill-rule="nonzero"></path><path fill="#000000" fill-opacity="0.0" d="m72.0 324.2857l0 8.0" fill-rule="nonzero"></path><path stroke="#666666" stroke-width="2.0" stroke-linejoin="round" stroke-linecap="butt" d="m72.0 324.2857l0 8.0" fill-rule="nonzero"></path><path fill="#000000" fill-opacity="0.0" d="m88.0 324.2857l0 8.0" fill-rule="nonzero"></path><path stroke="#666666" stroke-width="2.0" stroke-linejoin="round" stroke-linecap="butt" d="m88.0 324.2857l0 8.0" fill-rule="nonzero"></path><path fill="#000000" fill-opacity="0.0" d="m104.0 324.2857l0 8.0" fill-rule="nonzero"></path><path stroke="#666666" stroke-width="2.0" stroke-linejoin="round" stroke-linecap="butt" d="m104.0 324.2857l0 8.0" fill-rule="nonzero"></path><path fill="#000000" fill-opacity="0.0" d="m120.0 324.2857l0 8.0" fill-rule="nonzero"></path><path stroke="#666666" stroke-width="2.0" stroke-linejoin="round" stroke-linecap="butt" d="m120.0 324.2857l0 8.0" fill-rule="nonzero"></path><path fill="#000000" fill-opacity="0.0" d="m152.0 324.2857l0 8.0" fill-rule="nonzero"></path><path stroke="#666666" stroke-width="2.0" stroke-linejoin="round" stroke-linecap="butt" d="m152.0 324.2857l0 8.0" fill-rule="nonzero"></path><path fill="#000000" fill-opacity="0.0" d="m168.0 324.2857l0 8.0" fill-rule="nonzero"></path><path stroke="#666666" stroke-width="2.0" stroke-linejoin="round" stroke-linecap="butt" d="m168.0 324.2857l0 8.0" fill-rule="nonzero"></path><path fill="#000000" fill-opacity="0.0" d="m184.0 324.2857l0 8.0" fill-rule="nonzero"></path><path stroke="#666666" stroke-width="2.0" stroke-linejoin="round" stroke-linecap="butt" d="m184.0 324.2857l0 8.0" fill-rule="nonzero"></path><path fill="#000000" fill-opacity="0.0" d="m200.0 324.2857l0 8.0" fill-rule="nonzero"></path><path stroke="#666666" stroke-width="2.0" stroke-linejoin="round" stroke-linecap="butt" d="m200.0 324.2857l0 8.0" fill-rule="nonzero"></path><path fill="#000000" fill-opacity="0.0" d="m232.0 324.2857l0 8.0" fill-rule="nonzero"></path><path stroke="#666666" stroke-width="2.0" stroke-linejoin="round" stroke-linecap="butt" d="m232.0 324.2857l0 8.0" fill-rule="nonzero"></path><path fill="#000000" fill-opacity="0.0" d="m248.0 324.2857l0 8.0" fill-rule="nonzero"></path><path stroke="#666666" stroke-width="2.0" stroke-linejoin="round" stroke-linecap="butt" d="m248.0 324.2857l0 8.0" fill-rule="nonzero"></path><path fill="#000000" fill-opacity="0.0" d="m264.0 324.2857l0 8.0" fill-rule="nonzero"></path><path stroke="#666666" stroke-width="2.0" stroke-linejoin="round" stroke-linecap="butt" d="m264.0 324.2857l0 8.0" fill-rule="nonzero"></path><path fill="#000000" fill-opacity="0.0" d="m280.0 324.2857l0 8.0" fill-rule="nonzero"></path><path stroke="#666666" stroke-width="2.0" stroke-linejoin="round" stroke-linecap="butt" d="m280.0 324.2857l0 8.0" fill-rule="nonzero"></path><path fill="#000000" fill-opacity="0.0" d="m312.0 324.2857l0 8.0" fill-rule="nonzero"></path><path stroke="#666666" stroke-width="2.0" stroke-linejoin="round" stroke-linecap="butt" d="m312.0 324.2857l0 8.0" fill-rule="nonzero"></path><path fill="#000000" fill-opacity="0.0" d="m136.0 320.0l0 16.0" fill-rule="nonzero"></path><path stroke="#666666" stroke-width="2.0" stroke-linejoin="round" stroke-linecap="butt" d="m136.0 320.0l0 16.0" fill-rule="nonzero"></path><path fill="#000000" fill-opacity="0.0" d="m216.0 320.0l0 16.0" fill-rule="nonzero"></path><path stroke="#666666" stroke-width="2.0" stroke-linejoin="round" stroke-linecap="butt" d="m216.0 320.0l0 16.0" fill-rule="nonzero"></path><path fill="#000000" fill-opacity="0.0" d="m296.0 320.0l0 16.0" fill-rule="nonzero"></path><path stroke="#666666" stroke-width="2.0" stroke-linejoin="round" stroke-linecap="butt" d="m296.0 320.0l0 16.0" fill-rule="nonzero"></path><path fill="#000000" d="m132.0 328.0l0 0c0 -2.209137 1.790863 -4.0 4.0 -4.0l0 0c1.0608673 0 2.0782776 0.42141724 2.8284302 1.1715698c0.7501373 0.7501526 1.1715698 1.7675781 1.1715698 2.8284302l0 0c0 2.209137 -1.790863 4.0 -4.0 4.0l0 0c-2.209137 0 -4.0 -1.790863 -4.0 -4.0z" fill-rule="nonzero"></path><path fill="#000000" d="m212.0 328.0l0 0c0 -2.209137 1.790863 -4.0 4.0 -4.0l0 0c1.0608673 0 2.0782776 0.42141724 2.8284302 1.1715698c0.7501373 0.7501526 1.1715698 1.7675781 1.1715698 2.8284302l0 0c0 2.209137 -1.790863 4.0 -4.0 4.0l0 0c-2.209137 0 -4.0 -1.790863 -4.0 -4.0z" fill-rule="nonzero"></path><path fill="#000000" fill-opacity="0.0" d="m184.0 344.0l0 48.0" fill-rule="nonzero"></path><path stroke="#000000" stroke-width="2.0" stroke-linejoin="round" stroke-linecap="butt" d="m184.0 344.0l0 36.0" fill-rule="evenodd"></path><path fill="#000000" stroke="#000000" stroke-width="2.0" stroke-linecap="butt" d="m180.69653 380.0l3.3034668 9.076202l3.3034668 -9.076202z" fill-rule="evenodd"></path><path fill="#000000" fill-opacity="0.0" d="m184.0 342.3937l64.0 0l0 33.606293l-64.0 0z" fill-rule="nonzero"></path><path fill="#000000" d="m200.0625 373.2043q-4.28125 -3.953125 -4.28125 -8.75q0 -1.125 0.21875 -2.234375q0.234375 -1.125 0.734375 -2.25q0.515625 -1.125 1.34375 -2.234375q0.828125 -1.125 2.015625 -2.234375l0.9375 0.953125q-3.59375 3.546875 -3.59375 7.875q0 2.15625 0.90625 4.140625q0.90625 1.984375 2.6875 3.75l-0.96875 0.984375zm12.866669 -8.234375l-3.65625 0l0 3.78125l-1.59375 0l0 -3.78125l-3.640625 0l0 -1.421875l3.640625 0l0 -3.75l1.59375 0l0 3.75l3.65625 0l0 1.421875zm9.944794 4.34375l-8.0 0l0 -1.453125l3.140625 -3.109375q0.765625 -0.765625 1.25 -1.3125q0.484375 -0.5625 0.75 -1.015625q0.265625 -0.46875 0.359375 -0.875q0.09375 -0.40625 0.09375 -0.875q0 -0.453125 -0.125 -0.859375q-0.109375 -0.40625 -0.359375 -0.703125q-0.25 -0.3125 -0.65625 -0.484375q-0.390625 -0.171875 -0.953125 -0.171875q-0.765625 0 -1.40625 0.34375q-0.625 0.34375 -1.15625 0.890625l-0.890625 -1.078125q0.6875 -0.71875 1.578125 -1.15625q0.90625 -0.4375 2.09375 -0.4375q0.796875 0 1.453125 0.25q0.671875 0.234375 1.15625 0.6875q0.484375 0.453125 0.75 1.125q0.265625 0.65625 0.265625 1.46875q0 0.703125 -0.1875 1.296875q-0.1875 0.59375 -0.5625 1.1875q-0.375 0.578125 -0.953125 1.21875q-0.5625 0.625 -1.34375 1.375l-2.203125 2.140625l5.90625 0l0 1.546875zm4.2885437 -13.8125q4.265625 3.953125 4.265625 8.8125q0 1.0 -0.203125 2.078125q-0.203125 1.078125 -0.703125 2.203125q-0.484375 1.125 -1.3125 2.28125q-0.828125 1.171875 -2.09375 2.328125l-0.9375 -0.953125q1.8125 -1.78125 2.703125 -3.734375q0.890625 -1.953125 0.890625 -4.078125q0 -4.421875 -3.59375 -7.953125l0.984375 -0.984375z" fill-rule="nonzero"></path><path fill="#000000" fill-opacity="0.0" d="m56.0 408.0l280.0 0" fill-rule="nonzero"></path><path stroke="#666666" stroke-width="2.0" stroke-linejoin="round" stroke-linecap="butt" d="m56.0 408.0l268.0 0" fill-rule="evenodd"></path><path fill="#666666" stroke="#666666" stroke-width="2.0" stroke-linecap="butt" d="m324.0 411.30347l9.076202 -3.3034668l-9.076202 -3.3034668z" fill-rule="evenodd"></path><path fill="#000000" fill-opacity="0.0" d="m56.0 400.0l0 16.0" fill-rule="nonzero"></path><path stroke="#666666" stroke-width="2.0" stroke-linejoin="round" stroke-linecap="butt" d="m56.0 400.0l0 16.0" fill-rule="nonzero"></path><path fill="#000000" fill-opacity="0.0" d="m72.0 404.2857l0 8.0" fill-rule="nonzero"></path><path stroke="#666666" stroke-width="2.0" stroke-linejoin="round" stroke-linecap="butt" d="m72.0 404.2857l0 8.0" fill-rule="nonzero"></path><path fill="#000000" fill-opacity="0.0" d="m88.0 404.2857l0 8.0" fill-rule="nonzero"></path><path stroke="#666666" stroke-width="2.0" stroke-linejoin="round" stroke-linecap="butt" d="m88.0 404.2857l0 8.0" fill-rule="nonzero"></path><path fill="#000000" fill-opacity="0.0" d="m104.0 404.2857l0 8.0" fill-rule="nonzero"></path><path stroke="#666666" stroke-width="2.0" stroke-linejoin="round" stroke-linecap="butt" d="m104.0 404.2857l0 8.0" fill-rule="nonzero"></path><path fill="#000000" fill-opacity="0.0" d="m120.0 404.2857l0 8.0" fill-rule="nonzero"></path><path stroke="#666666" stroke-width="2.0" stroke-linejoin="round" stroke-linecap="butt" d="m120.0 404.2857l0 8.0" fill-rule="nonzero"></path><path fill="#000000" fill-opacity="0.0" d="m152.0 404.2857l0 8.0" fill-rule="nonzero"></path><path stroke="#666666" stroke-width="2.0" stroke-linejoin="round" stroke-linecap="butt" d="m152.0 404.2857l0 8.0" fill-rule="nonzero"></path><path fill="#000000" fill-opacity="0.0" d="m168.0 404.2857l0 8.0" fill-rule="nonzero"></path><path stroke="#666666" stroke-width="2.0" stroke-linejoin="round" stroke-linecap="butt" d="m168.0 404.2857l0 8.0" fill-rule="nonzero"></path><path fill="#000000" fill-opacity="0.0" d="m184.0 404.2857l0 8.0" fill-rule="nonzero"></path><path stroke="#666666" stroke-width="2.0" stroke-linejoin="round" stroke-linecap="butt" d="m184.0 404.2857l0 8.0" fill-rule="nonzero"></path><path fill="#000000" fill-opacity="0.0" d="m200.0 404.2857l0 8.0" fill-rule="nonzero"></path><path stroke="#666666" stroke-width="2.0" stroke-linejoin="round" stroke-linecap="butt" d="m200.0 404.2857l0 8.0" fill-rule="nonzero"></path><path fill="#000000" fill-opacity="0.0" d="m232.0 404.2857l0 8.0" fill-rule="nonzero"></path><path stroke="#666666" stroke-width="2.0" stroke-linejoin="round" stroke-linecap="butt" d="m232.0 404.2857l0 8.0" fill-rule="nonzero"></path><path fill="#000000" fill-opacity="0.0" d="m248.0 404.2857l0 8.0" fill-rule="nonzero"></path><path stroke="#666666" stroke-width="2.0" stroke-linejoin="round" stroke-linecap="butt" d="m248.0 404.2857l0 8.0" fill-rule="nonzero"></path><path fill="#000000" fill-opacity="0.0" d="m264.0 404.2857l0 8.0" fill-rule="nonzero"></path><path stroke="#666666" stroke-width="2.0" stroke-linejoin="round" stroke-linecap="butt" d="m264.0 404.2857l0 8.0" fill-rule="nonzero"></path><path fill="#000000" fill-opacity="0.0" d="m280.0 404.2857l0 8.0" fill-rule="nonzero"></path><path stroke="#666666" stroke-width="2.0" stroke-linejoin="round" stroke-linecap="butt" d="m280.0 404.2857l0 8.0" fill-rule="nonzero"></path><path fill="#000000" fill-opacity="0.0" d="m312.0 404.2857l0 8.0" fill-rule="nonzero"></path><path stroke="#666666" stroke-width="2.0" stroke-linejoin="round" stroke-linecap="butt" d="m312.0 404.2857l0 8.0" fill-rule="nonzero"></path><path fill="#000000" fill-opacity="0.0" d="m136.0 400.0l0 16.0" fill-rule="nonzero"></path><path stroke="#666666" stroke-width="2.0" stroke-linejoin="round" stroke-linecap="butt" d="m136.0 400.0l0 16.0" fill-rule="nonzero"></path><path fill="#000000" fill-opacity="0.0" d="m216.0 400.0l0 16.0" fill-rule="nonzero"></path><path stroke="#666666" stroke-width="2.0" stroke-linejoin="round" stroke-linecap="butt" d="m216.0 400.0l0 16.0" fill-rule="nonzero"></path><path fill="#000000" fill-opacity="0.0" d="m296.0 400.0l0 16.0" fill-rule="nonzero"></path><path stroke="#666666" stroke-width="2.0" stroke-linejoin="round" stroke-linecap="butt" d="m296.0 400.0l0 16.0" fill-rule="nonzero"></path><path fill="#000000" d="m164.0 408.0l0 0c0 -2.209137 1.790863 -4.0 4.0 -4.0l0 0c1.0608673 0 2.0782776 0.42141724 2.8284302 1.1715698c0.7501373 0.7501526 1.1715698 1.7675781 1.1715698 2.8284302l0 0c0 2.209137 -1.790863 4.0 -4.0 4.0l0 0c-2.209137 0 -4.0 -1.790863 -4.0 -4.0z" fill-rule="nonzero"></path><path fill="#000000" d="m244.0 408.0l0 0c0 -2.209137 1.790863 -4.0 4.0 -4.0l0 0c1.0608673 0 2.0782776 0.42141724 2.8284302 1.1715698c0.7501373 0.7501526 1.1715698 1.7675781 1.1715698 2.8284302l0 0c0 2.209137 -1.790863 4.0 -4.0 4.0l0 0c-2.209137 0 -4.0 -1.790863 -4.0 -4.0z" fill-rule="nonzero"></path><path fill="#000000" fill-opacity="0.0" d="m112.0 296.0l32.0 0l0 32.0l-32.0 0z" fill-rule="nonzero"></path><path fill="#000000" d="m124.19434 309.84937l0.859375 0l0.015625 0.984375q0.484375 -0.5625 0.953125 -0.8125q0.46875 -0.265625 0.9375 -0.265625q0.828125 0 1.2656174 0.546875q0.4375 0.53125 0.40625 1.609375l-0.9531174 0q0.015625 -0.71875 -0.203125 -1.03125q-0.21875 -0.328125 -0.65625 -0.328125q-0.1875 0 -0.375 0.078125q-0.1875 0.0625 -0.390625 0.21875q-0.203125 0.140625 -0.4375 0.375q-0.21875 0.21875 -0.46875 0.546875l0 3.46875l-0.953125 0l0 -5.390625z" fill-rule="nonzero"></path><path fill="#000000" d="m132.38132 319.24l-2.796875 0l0 -0.546875l1.140625 0l0 -3.265625l-1.0625 0.578125l-0.21875 -0.5l1.421875 -0.75l0.515625 0l0 3.9375l1.0 0l0 0.546875z" fill-rule="nonzero"></path><path fill="#000000" fill-opacity="0.0" d="m208.0 296.0l32.0 0l0 32.0l-32.0 0z" fill-rule="nonzero"></path><path fill="#000000" d="m220.19434 309.84937l0.859375 0l0.015625 0.984375q0.484375 -0.5625 0.953125 -0.8125q0.46875 -0.265625 0.9375 -0.265625q0.828125 0 1.265625 0.546875q0.4375 0.53125 0.40625 1.609375l-0.953125 0q0.015625 -0.71875 -0.203125 -1.03125q-0.21875 -0.328125 -0.65625 -0.328125q-0.1875 0 -0.375 0.078125q-0.1875 0.0625 -0.390625 0.21875q-0.203125 0.140625 -0.4375 0.375q-0.21875 0.21875 -0.46875 0.546875l0 3.46875l-0.953125 0l0 -5.390625z" fill-rule="nonzero"></path><path fill="#000000" d="m228.42819 319.24l-2.953125 0l0 -0.53125l1.15625 -1.15625q0.28125 -0.28125 0.453125 -0.484375q0.1875 -0.203125 0.28125 -0.359375q0.109375 -0.171875 0.140625 -0.328125q0.03125 -0.15625 0.03125 -0.328125q0 -0.15625 -0.046875 -0.296875q-0.046875 -0.15625 -0.140625 -0.265625q-0.078125 -0.125 -0.234375 -0.1875q-0.140625 -0.0625 -0.34375 -0.0625q-0.296875 0 -0.53125 0.125q-0.21875 0.125 -0.421875 0.328125l-0.328125 -0.390625q0.25 -0.265625 0.578125 -0.421875q0.34375 -0.171875 0.78125 -0.171875q0.296875 0 0.53125 0.09375q0.25 0.09375 0.421875 0.265625q0.1875 0.15625 0.28125 0.40625q0.09375 0.234375 0.09375 0.53125q0 0.265625 -0.078125 0.484375q-0.0625 0.21875 -0.203125 0.4375q-0.125 0.21875 -0.34375 0.453125q-0.203125 0.21875 -0.5 0.5l-0.796875 0.796875l2.171875 0l0 0.5625z" fill-rule="nonzero"></path><path fill="#000000" fill-opacity="0.0" d="m136.0 316.5l0 0c0 -4.418274 0.5969238 -8.0 1.3332825 -8.0l37.333435 0c0.73635864 0 1.3332825 -3.581726 1.3332825 -8.0l0 0c0 4.418274 0.5969238 8.0 1.3332825 8.0l37.333435 0c0.73635864 0 1.3332825 3.581726 1.3332825 8.0z" fill-rule="nonzero"></path><path fill="#000000" fill-opacity="0.0" d="m136.0 316.5l0 0c0 -4.418274 0.5969238 -8.0 1.3332825 -8.0l37.333435 0c0.73635864 0 1.3332825 -3.581726 1.3332825 -8.0l0 0c0 4.418274 0.5969238 8.0 1.3332825 8.0l37.333435 0c0.73635864 0 1.3332825 3.581726 1.3332825 8.0" fill-rule="nonzero"></path><path stroke="#666666" stroke-width="2.0" stroke-linejoin="round" stroke-linecap="butt" d="m136.0 316.5l0 0c0 -4.418274 0.5969238 -8.0 1.3332825 -8.0l37.333435 0c0.73635864 0 1.3332825 -3.581726 1.3332825 -8.0l0 0c0 4.418274 0.5969238 8.0 1.3332825 8.0l37.333435 0c0.73635864 0 1.3332825 3.581726 1.3332825 8.0" fill-rule="nonzero"></path><path fill="#000000" fill-opacity="0.0" d="m248.0 420.0l0 0c0 4.418274 -0.5969238 8.0 -1.3332825 8.0l-37.333435 0c-0.73635864 0 -1.3332825 3.581726 -1.3332825 8.0l0 0c0 -4.418274 -0.5969238 -8.0 -1.3332825 -8.0l-37.333435 0c-0.73635864 0 -1.3332825 -3.581726 -1.3332825 -8.0z" fill-rule="nonzero"></path><path fill="#000000" fill-opacity="0.0" d="m248.0 420.0l0 0c0 4.418274 -0.5969238 8.0 -1.3332825 8.0l-37.333435 0c-0.73635864 0 -1.3332825 3.581726 -1.3332825 8.0l0 0c0 -4.418274 -0.5969238 -8.0 -1.3332825 -8.0l-37.333435 0c-0.73635864 0 -1.3332825 -3.581726 -1.3332825 -8.0" fill-rule="nonzero"></path><path stroke="#666666" stroke-width="2.0" stroke-linejoin="round" stroke-linecap="butt" d="m248.0 420.0l0 0c0 4.418274 -0.5969238 8.0 -1.3332825 8.0l-37.333435 0c-0.73635864 0 -1.3332825 3.581726 -1.3332825 8.0l0 0c0 -4.418274 -0.5969238 -8.0 -1.3332825 -8.0l-37.333435 0c-0.73635864 0 -1.3332825 -3.581726 -1.3332825 -8.0" fill-rule="nonzero"></path><path fill="#000000" fill-opacity="0.0" d="m144.0 399.5l32.0 0l0 32.0l-32.0 0z" fill-rule="nonzero"></path><path fill="#000000" d="m156.19434 413.34937l0.859375 0l0.015625 0.984375q0.484375 -0.5625 0.953125 -0.8125q0.46875 -0.265625 0.9375 -0.265625q0.828125 0 1.265625 0.546875q0.4375 0.53125 0.40625 1.609375l-0.953125 0q0.015625 -0.71875 -0.203125 -1.03125q-0.21875 -0.328125 -0.65625 -0.328125q-0.1875 0 -0.375 0.078125q-0.1875 0.0625 -0.390625 0.21875q-0.203125 0.140625 -0.4375 0.375q-0.21875 0.21875 -0.46875 0.546875l0 3.46875l-0.953125 0l0 -5.390625z" fill-rule="nonzero"></path><path fill="#000000" d="m164.38132 422.74l-2.796875 0l0 -0.546875l1.140625 0l0 -3.265625l-1.0625 0.578125l-0.21875 -0.5l1.421875 -0.75l0.515625 0l0 3.9375l1.0 0l0 0.546875z" fill-rule="nonzero"></path><path fill="#000000" fill-opacity="0.0" d="m240.0 399.5l32.0 0l0 32.0l-32.0 0z" fill-rule="nonzero"></path><path fill="#000000" d="m252.19434 413.34937l0.859375 0l0.015625 0.984375q0.484375 -0.5625 0.953125 -0.8125q0.46875 -0.265625 0.9375 -0.265625q0.828125 0 1.265625 0.546875q0.4375 0.53125 0.40625 1.609375l-0.953125 0q0.015625 -0.71875 -0.203125 -1.03125q-0.21875 -0.328125 -0.65625 -0.328125q-0.1875 0 -0.375 0.078125q-0.1875 0.0625 -0.390625 0.21875q-0.203125 0.140625 -0.4375 0.375q-0.21875 0.21875 -0.46875 0.546875l0 3.46875l-0.953125 0l0 -5.390625z" fill-rule="nonzero"></path><path fill="#000000" d="m260.4282 422.74l-2.953125 0l0 -0.53125l1.15625 -1.15625q0.28125 -0.28125 0.453125 -0.484375q0.1875 -0.203125 0.28125 -0.359375q0.109375 -0.171875 0.140625 -0.328125q0.03125 -0.15625 0.03125 -0.328125q0 -0.15625 -0.046875 -0.296875q-0.046875 -0.15625 -0.140625 -0.265625q-0.078125 -0.125 -0.234375 -0.1875q-0.140625 -0.0625 -0.34375 -0.0625q-0.296875 0 -0.53125 0.125q-0.21875 0.125 -0.421875 0.328125l-0.328125 -0.390625q0.25 -0.265625 0.578125 -0.421875q0.34375 -0.171875 0.78125 -0.171875q0.296875 0 0.53125 0.09375q0.25 0.09375 0.421875 0.265625q0.1875 0.15625 0.28125 0.40625q0.09375 0.234375 0.09375 0.53125q0 0.265625 -0.078125 0.484375q-0.0625 0.21875 -0.203125 0.4375q-0.125 0.21875 -0.34375 0.453125q-0.203125 0.21875 -0.5 0.5l-0.796875 0.796875l2.171875 0l0 0.5625z" fill-rule="nonzero"></path><path fill="#000000" fill-opacity="0.0" d="m160.0 264.0l56.0 0l0 24.0l-56.0 0z" fill-rule="nonzero"></path><path fill="#000000" d="m170.01562 286.45123q0 -1.1875 0.3125 -2.109375q0.328125 -0.921875 0.921875 -1.546875q0.609375 -0.640625 1.4375 -0.96875q0.84375 -0.328125 1.875 -0.328125q0.453125 0 0.875 0.0625q0.4375 0.046875 0.859375 0.171875l0 -3.921875l1.625 0l0 13.109375l-1.453125 0l-0.0625 -1.765625q-0.671875 0.984375 -1.46875 1.46875q-0.78125 0.46875 -1.703125 0.46875q-0.796875 0 -1.40625 -0.328125q-0.59375 -0.34375 -1.0 -0.953125q-0.40625 -0.609375 -0.609375 -1.453125q-0.203125 -0.859375 -0.203125 -1.90625zm1.640625 -0.09375q0 1.6875 0.5 2.515625q0.5 0.828125 1.40625 0.828125q0.609375 0 1.296875 -0.546875q0.6875 -0.546875 1.4375 -1.625l0 -4.3125q-0.40625 -0.1875 -0.890625 -0.28125q-0.484375 -0.109375 -0.953125 -0.109375q-1.3125 0 -2.0625 0.859375q-0.734375 0.84375 -0.734375 2.671875z" fill-rule="nonzero"></path><path fill="#000000" d="m182.1948 292.8731l-1.734375 0l0 -0.84375l2.765625 0l0 5.046875l1.75 0l0 0.84375l-4.703125 0l0 -0.84375l1.921875 0l0 -4.203125zm0.359375 -3.296875q0.171875 0 0.3125 0.0625q0.15625 0.046875 0.265625 0.171875q0.109375 0.109375 0.171875 0.25q0.0625 0.140625 0.0625 0.3125q0 0.15625 -0.0625 0.3125q-0.0625 0.140625 -0.171875 0.25q-0.109375 0.109375 -0.265625 0.171875q-0.140625 0.0625 -0.3125 0.0625q-0.171875 0 -0.3125 -0.0625q-0.140625 -0.0625 -0.25 -0.171875q-0.109375 -0.109375 -0.171875 -0.25q-0.0625 -0.15625 -0.0625 -0.3125q0 -0.171875 0.0625 -0.3125q0.0625 -0.140625 0.171875 -0.25q0.109375 -0.125 0.25 -0.171875q0.140625 -0.0625 0.3125 -0.0625zm4.478714 2.453125l0.90625 0l0.046875 0.953125q0.25 -0.296875 0.484375 -0.5q0.25 -0.203125 0.484375 -0.328125q0.234375 -0.125 0.46875 -0.171875q0.234375 -0.046875 0.5 -0.046875q0.90625 0 1.375 0.53125q0.46875 0.53125 0.46875 1.609375l0 3.84375l-1.03125 0l0 -3.75q0 -0.703125 -0.265625 -1.03125q-0.25 -0.328125 -0.75 -0.328125q-0.1875 0 -0.375 0.0625q-0.171875 0.046875 -0.375 0.1875q-0.1875 0.140625 -0.421875 0.375q-0.21875 0.234375 -0.5 0.578125l0 3.90625l-1.015625 0l0 -5.890625z" fill-rule="nonzero"></path><path fill="#000000" fill-opacity="0.0" d="m184.0 424.0l56.0 0l0 24.0l-56.0 0z" fill-rule="nonzero"></path><path fill="#000000" d="m194.01562 446.45123q0 -1.1875 0.3125 -2.109375q0.328125 -0.921875 0.921875 -1.546875q0.609375 -0.640625 1.4375 -0.96875q0.84375 -0.328125 1.875 -0.328125q0.453125 0 0.875 0.0625q0.4375 0.046875 0.859375 0.171875l0 -3.921875l1.625 0l0 13.109375l-1.453125 0l-0.0625 -1.765625q-0.671875 0.984375 -1.46875 1.46875q-0.78125 0.46875 -1.703125 0.46875q-0.796875 0 -1.40625 -0.328125q-0.59375 -0.34375 -1.0 -0.953125q-0.40625 -0.609375 -0.609375 -1.453125q-0.203125 -0.859375 -0.203125 -1.90625zm1.640625 -0.09375q0 1.6875 0.5 2.515625q0.5 0.828125 1.40625 0.828125q0.609375 0 1.296875 -0.546875q0.6875 -0.546875 1.4375 -1.625l0 -4.3125q-0.40625 -0.1875 -0.890625 -0.28125q-0.484375 -0.109375 -0.953125 -0.109375q-1.3125 0 -2.0625 0.859375q-0.734375 0.84375 -0.734375 2.671875z" fill-rule="nonzero"></path><path fill="#000000" d="m209.3198 454.9356q0 0.6875 -0.203125 1.265625q-0.1875 0.5625 -0.546875 0.96875q-0.359375 0.40625 -0.890625 0.640625q-0.515625 0.21875 -1.1875 0.21875q-0.625 0 -1.125 -0.1875q-0.5 -0.203125 -0.859375 -0.578125q-0.34375 -0.390625 -0.53125 -0.953125q-0.171875 -0.5625 -0.171875 -1.296875q0 -0.6875 0.1875 -1.25q0.1875 -0.5625 0.546875 -0.96875q0.375 -0.40625 0.890625 -0.625q0.53125 -0.234375 1.1875 -0.234375q0.625 0 1.125 0.203125q0.515625 0.1875 0.859375 0.5625q0.34375 0.375 0.53125 0.9375q0.1875 0.5625 0.1875 1.296875zm-1.046875 0.046875q0 -0.546875 -0.125 -0.953125q-0.109375 -0.40625 -0.34375 -0.671875q-0.21875 -0.28125 -0.546875 -0.421875q-0.3125 -0.140625 -0.703125 -0.140625q-0.453125 0 -0.78125 0.1875q-0.328125 0.171875 -0.53125 0.46875q-0.203125 0.296875 -0.3125 0.703125q-0.09375 0.390625 -0.09375 0.828125q0 0.546875 0.125 0.953125q0.125 0.40625 0.34375 0.6875q0.21875 0.265625 0.53125 0.40625q0.328125 0.140625 0.71875 0.140625q0.453125 0 0.78125 -0.171875q0.328125 -0.1875 0.53125 -0.484375q0.21875 -0.3125 0.3125 -0.703125q0.09375 -0.390625 0.09375 -0.828125zm7.494339 2.9375l-0.921875 0l-0.03125 -0.953125q-0.265625 0.3125 -0.5 0.515625q-0.234375 0.203125 -0.46875 0.328125q-0.234375 0.109375 -0.484375 0.15625q-0.234375 0.0625 -0.5 0.0625q-0.90625 0 -1.375 -0.53125q-0.453125 -0.546875 -0.453125 -1.625l0 -3.84375l1.015625 0l0 3.765625q0 1.359375 1.03125 1.359375q0.1875 0 0.359375 -0.046875q0.171875 -0.0625 0.375 -0.203125q0.203125 -0.140625 0.421875 -0.375q0.21875 -0.234375 0.5 -0.59375l0 -3.90625l1.03125 0l0 5.890625zm6.838089 -0.078125q-0.34375 0.078125 -0.71875 0.109375q-0.359375 0.046875 -0.734375 0.046875q-1.109375 0 -1.65625 -0.5q-0.546875 -0.5 -0.546875 -1.53125l0 -3.078125l-1.640625 0l0 -0.859375l1.640625 0l0 -1.609375l1.015625 -0.265625l0 1.875l2.640625 0l0 0.859375l-2.640625 0l0 2.984375q0 0.640625 0.328125 0.953125q0.34375 0.3125 1.0 0.3125q0.28125 0 0.609375 -0.046875q0.34375 -0.046875 0.703125 -0.140625l0 0.890625z" fill-rule="nonzero"></path><path fill="#000000" fill-opacity="0.0" d="m280.0 342.3937l288.0 0l0 33.606293l-288.0 0z" fill-rule="nonzero"></path><path fill="#000000" d="m290.01562 364.84494q0 -1.1875 0.3125 -2.109375q0.328125 -0.921875 0.921875 -1.546875q0.609375 -0.640625 1.4375 -0.96875q0.84375 -0.328125 1.875 -0.328125q0.453125 0 0.875 0.0625q0.4375 0.046875 0.859375 0.171875l0 -3.921875l1.625 0l0 13.109375l-1.453125 0l-0.0625 -1.765625q-0.671875 0.984375 -1.46875 1.46875q-0.78125 0.46875 -1.703125 0.46875q-0.796875 0 -1.40625 -0.328125q-0.59375 -0.34375 -1.0 -0.953125q-0.40625 -0.609375 -0.609375 -1.453125q-0.203125 -0.859375 -0.203125 -1.90625zm1.640625 -0.09375q0 1.6875 0.5 2.515625q0.5 0.828125 1.40625 0.828125q0.609375 0 1.296875 -0.546875q0.6875 -0.546875 1.4375 -1.625l0 -4.3125q-0.40625 -0.1875 -0.890625 -0.28125q-0.484375 -0.109375 -0.953125 -0.109375q-1.3125 0 -2.0625 0.859375q-0.734375 0.84375 -0.734375 2.671875z" fill-rule="nonzero"></path><path fill="#000000" d="m305.3198 373.3293q0 0.6875 -0.203125 1.265625q-0.1875 0.5625 -0.546875 0.96875q-0.359375 0.40625 -0.890625 0.640625q-0.515625 0.21875 -1.1875 0.21875q-0.625 0 -1.125 -0.1875q-0.5 -0.203125 -0.859375 -0.578125q-0.34375 -0.390625 -0.53125 -0.953125q-0.171875 -0.5625 -0.171875 -1.296875q0 -0.6875 0.1875 -1.25q0.1875 -0.5625 0.546875 -0.96875q0.375 -0.40625 0.890625 -0.625q0.53125 -0.234375 1.1875 -0.234375q0.625 0 1.125 0.203125q0.515625 0.1875 0.859375 0.5625q0.34375 0.375 0.53125 0.9375q0.1875 0.5625 0.1875 1.296875zm-1.046875 0.046875q0 -0.546875 -0.125 -0.953125q-0.109375 -0.40625 -0.34375 -0.671875q-0.21875 -0.28125 -0.546875 -0.421875q-0.3125 -0.140625 -0.703125 -0.140625q-0.453125 0 -0.78125 0.1875q-0.328125 0.171875 -0.53125 0.46875q-0.203125 0.296875 -0.3125 0.703125q-0.09375 0.390625 -0.09375 0.828125q0 0.546875 0.125 0.953125q0.125 0.40625 0.34375 0.6875q0.21875 0.265625 0.53125 0.40625q0.328125 0.140625 0.71875 0.140625q0.453125 0 0.78125 -0.171875q0.328125 -0.1875 0.53125 -0.484375q0.21875 -0.3125 0.3125 -0.703125q0.09375 -0.390625 0.09375 -0.828125zm7.4943542 2.9375l-0.921875 0l-0.03125 -0.953125q-0.265625 0.3125 -0.5 0.515625q-0.234375 0.203125 -0.46875 0.328125q-0.234375 0.109375 -0.484375 0.15625q-0.234375 0.0625 -0.5 0.0625q-0.90625 0 -1.375 -0.53125q-0.453125 -0.546875 -0.453125 -1.625l0 -3.84375l1.015625 0l0 3.765625q0 1.359375 1.03125 1.359375q0.1875 0 0.359375 -0.046875q0.171875 -0.0625 0.375 -0.203125q0.203125 -0.140625 0.421875 -0.375q0.21875 -0.234375 0.5 -0.59375l0 -3.90625l1.03125 0l0 5.890625zm6.8380737 -0.078125q-0.34375 0.078125 -0.71875 0.109375q-0.359375 0.046875 -0.734375 0.046875q-1.109375 0 -1.65625 -0.5q-0.546875 -0.5 -0.546875 -1.53125l0 -3.078125l-1.640625 0l0 -0.859375l1.640625 0l0 -1.609375l1.015625 -0.265625l0 1.875l2.640625 0l0 0.859375l-2.640625 0l0 2.984375q0 0.640625 0.328125 0.953125q0.34375 0.3125 1.0 0.3125q0.28125 0 0.609375 -0.046875q0.34375 -0.046875 0.703125 -0.140625l0 0.890625z" fill-rule="nonzero"></path><path fill="#000000" d="m328.99033 363.3137l-7.984375 0l0 -1.359375l7.984375 0l0 1.359375zm0 3.234375l-7.984375 0l0 -1.359375l7.984375 0l0 1.359375zm12.311462 -1.703125q0 -1.1875 0.3125 -2.109375q0.328125 -0.921875 0.921875 -1.546875q0.609375 -0.640625 1.4375 -0.96875q0.84375 -0.328125 1.875 -0.328125q0.453125 0 0.875 0.0625q0.4375 0.046875 0.859375 0.171875l0 -3.921875l1.625 0l0 13.109375l-1.453125 0l-0.0625 -1.765625q-0.671875 0.984375 -1.46875 1.46875q-0.78125 0.46875 -1.703125 0.46875q-0.796875 0 -1.40625 -0.328125q-0.59375 -0.34375 -1.0 -0.953125q-0.40625 -0.609375 -0.609375 -1.453125q-0.203125 -0.859375 -0.203125 -1.90625zm1.640625 -0.09375q0 1.6875 0.5 2.515625q0.5 0.828125 1.40625 0.828125q0.609375 0 1.296875 -0.546875q0.6875 -0.546875 1.4375 -1.625l0 -4.3125q-0.40625 -0.1875 -0.890625 -0.28125q-0.484375 -0.109375 -0.953125 -0.109375q-1.3125 0 -2.0625 0.859375q-0.734375 0.84375 -0.734375 2.671875z" fill-rule="nonzero"></path><path fill="#000000" d="m353.48096 371.2668l-1.734375 0l0 -0.84375l2.765625 0l0 5.046875l1.75 0l0 0.84375l-4.703125 0l0 -0.84375l1.921875 0l0 -4.203125zm0.359375 -3.296875q0.171875 0 0.3125 0.0625q0.15625 0.046875 0.265625 0.171875q0.109375 0.109375 0.171875 0.25q0.0625 0.140625 0.0625 0.3125q0 0.15625 -0.0625 0.3125q-0.0625 0.140625 -0.171875 0.25q-0.109375 0.109375 -0.265625 0.171875q-0.140625 0.0625 -0.3125 0.0625q-0.171875 0 -0.3125 -0.0625q-0.140625 -0.0625 -0.25 -0.171875q-0.109375 -0.109375 -0.171875 -0.25q-0.0625 -0.15625 -0.0625 -0.3125q0 -0.171875 0.0625 -0.3125q0.0625 -0.140625 0.171875 -0.25q0.109375 -0.125 0.25 -0.171875q0.140625 -0.0625 0.3125 -0.0625zm4.4786987 2.453125l0.90625 0l0.046875 0.953125q0.25 -0.296875 0.484375 -0.5q0.25 -0.203125 0.484375 -0.328125q0.234375 -0.125 0.46875 -0.171875q0.234375 -0.046875 0.5 -0.046875q0.90625 0 1.375 0.53125q0.46875 0.53125 0.46875 1.609375l0 3.84375l-1.03125 0l0 -3.75q0 -0.703125 -0.265625 -1.03125q-0.25 -0.328125 -0.75 -0.328125q-0.1875 0 -0.375 0.0625q-0.171875 0.046875 -0.375 0.1875q-0.1875 0.140625 -0.421875 0.375q-0.21875 0.234375 -0.5 0.578125l0 3.90625l-1.015625 0l0 -5.890625z" fill-rule="nonzero"></path><path fill="#000000" d="m383.69568 363.3137l-7.984375 0l0 -1.359375l7.984375 0l0 1.359375zm0 3.234375l-7.984375 0l0 -1.359375l7.984375 0l0 1.359375zm2.9760437 -6.46875l1.0 -1.03125l6.234375 5.203125l-6.234375 5.21875l-1.0 -1.03125l5.0625 -4.15625l-5.0625 -4.203125zm27.295837 8.890625q-0.625 0.234375 -1.296875 0.34375q-0.65625 0.125 -1.359375 0.125q-2.21875 0 -3.40625 -1.1875q-1.1875 -1.203125 -1.1875 -3.5q0 -1.109375 0.34375 -2.0q0.34375 -0.90625 0.953125 -1.546875q0.625 -0.640625 1.484375 -0.984375q0.875 -0.34375 1.90625 -0.34375q0.734375 0 1.359375 0.109375q0.625 0.09375 1.203125 0.3125l0 1.546875q-0.59375 -0.3125 -1.234375 -0.453125q-0.625 -0.15625 -1.28125 -0.15625q-0.625 0 -1.1875 0.25q-0.546875 0.234375 -0.96875 0.6875q-0.40625 0.4375 -0.65625 1.078125q-0.234375 0.640625 -0.234375 1.4375q0 1.6875 0.8125 2.53125q0.828125 0.84375 2.28125 0.84375q0.65625 0 1.265625 -0.140625q0.625 -0.15625 1.203125 -0.453125l0 1.5zm21.014587 -5.65625l-7.984375 0l0 -1.359375l7.984375 0l0 1.359375zm0 3.234375l-7.984375 0l0 -1.359375l7.984375 0l0 1.359375zm20.545837 2.765625l-7.609375 0l0 -1.5l3.109375 0l0 -8.859375l-2.90625 1.578125l-0.59375 -1.375l3.859375 -2.03125l1.4375 0l0 10.6875l2.703125 0l0 1.5z" fill-rule="nonzero"></path><path fill="#000000" fill-opacity="0.0" d="m8.0 232.0l480.0 0" fill-rule="nonzero"></path><path stroke="#999999" stroke-width="2.0" stroke-linejoin="round" stroke-linecap="butt" stroke-dasharray="2.0,6.0" d="m8.0 232.0l480.0 0" fill-rule="nonzero"></path><path fill="#000000" fill-opacity="0.0" d="m56.0 584.0l280.0 0" fill-rule="nonzero"></path><path stroke="#666666" stroke-width="2.0" stroke-linejoin="round" stroke-linecap="butt" d="m56.0 584.0l268.0 0" fill-rule="evenodd"></path><path fill="#666666" stroke="#666666" stroke-width="2.0" stroke-linecap="butt" d="m324.0 587.30347l9.076202 -3.3034668l-9.076202 -3.3034668z" fill-rule="evenodd"></path><path fill="#000000" fill-opacity="0.0" d="m56.0 576.0l0 16.0" fill-rule="nonzero"></path><path stroke="#666666" stroke-width="2.0" stroke-linejoin="round" stroke-linecap="butt" d="m56.0 576.0l0 16.0" fill-rule="nonzero"></path><path fill="#000000" fill-opacity="0.0" d="m41.5 603.9685l16.0 0.03149414l0 24.0l-16.0 -0.03149414z" fill-rule="nonzero"></path><path fill="#434343" d="m53.21093 623.24225q0 1.171875 -0.234375 2.1401367q-0.234375 0.96832275 -0.7187462 1.6548462q-0.46875 0.6865845 -1.171875 1.0758057q-0.703125 0.3735962 -1.6562462 0.37176514q-0.828125 -0.0016479492 -1.4999962 -0.31549072q-0.671875 -0.31378174 -1.15625 -0.9553833q-0.4687462 -0.6415405 -0.7343712 -1.6264648q-0.25 -1.0004883 -0.25 -2.3598633q0 -1.171875 0.234375 -2.1401367q0.25 -0.9682617 0.7187462 -1.6548462q0.46875 -0.6865845 1.171875 -1.0601807q0.7187462 -0.3892212 1.6718712 -0.38739014q0.8124962 0.0016479492 1.4843712 0.3154297q0.671875 0.31384277 1.140625 0.9553833q0.4843712 0.64160156 0.7343712 1.6420898q0.265625 0.9848633 0.265625 2.3442993zm-1.3749962 0.044128418q0 -0.265625 -0.015625 -0.515625q-0.015625 -0.26568604 -0.046875 -0.5157471l-4.3124924 3.194641q0.109375 0.40649414 0.28125 0.7505493q0.1875 0.3441162 0.4375 0.5946045q0.2656212 0.25054932 0.5781212 0.39178467q0.328125 0.12567139 0.75 0.12646484q0.53125 0.0010375977 0.9531212 -0.24810791q0.4375 -0.2647705 0.734375 -0.76416016q0.3125 -0.51501465 0.46875 -1.2647095q0.171875 -0.7496948 0.171875 -1.7496948zm-4.6718674 -0.10290527q0 0.25 0 0.5q0.015625 0.234375 0.03125 0.45318604l4.3281174 -3.179016q-0.125 -0.40649414 -0.3125 -0.73498535q-0.171875 -0.3284912 -0.421875 -0.5633545q-0.25 -0.23486328 -0.5781212 -0.36047363q-0.3125 -0.14123535 -0.703125 -0.14202881q-0.53125 -0.0010375977 -0.96875 0.2637329q-0.4374962 0.24914551 -0.7499962 0.76416016q-0.296875 0.49938965 -0.46875 1.2646484q-0.15625 0.7496948 -0.15625 1.7341309z" fill-rule="nonzero"></path><path fill="#000000" fill-opacity="0.0" d="m72.0 580.2857l0 8.0" fill-rule="nonzero"></path><path stroke="#666666" stroke-width="2.0" stroke-linejoin="round" stroke-linecap="butt" d="m72.0 580.2857l0 8.0" fill-rule="nonzero"></path><path fill="#000000" fill-opacity="0.0" d="m88.0 580.2857l0 8.0" fill-rule="nonzero"></path><path stroke="#666666" stroke-width="2.0" stroke-linejoin="round" stroke-linecap="butt" d="m88.0 580.2857l0 8.0" fill-rule="nonzero"></path><path fill="#000000" fill-opacity="0.0" d="m104.0 580.2857l0 8.0" fill-rule="nonzero"></path><path stroke="#666666" stroke-width="2.0" stroke-linejoin="round" stroke-linecap="butt" d="m104.0 580.2857l0 8.0" fill-rule="nonzero"></path><path fill="#000000" fill-opacity="0.0" d="m120.0 580.2857l0 8.0" fill-rule="nonzero"></path><path stroke="#666666" stroke-width="2.0" stroke-linejoin="round" stroke-linecap="butt" d="m120.0 580.2857l0 8.0" fill-rule="nonzero"></path><path fill="#000000" fill-opacity="0.0" d="m152.0 580.2857l0 8.0" fill-rule="nonzero"></path><path stroke="#666666" stroke-width="2.0" stroke-linejoin="round" stroke-linecap="butt" d="m152.0 580.2857l0 8.0" fill-rule="nonzero"></path><path fill="#000000" fill-opacity="0.0" d="m168.0 580.2857l0 8.0" fill-rule="nonzero"></path><path stroke="#666666" stroke-width="2.0" stroke-linejoin="round" stroke-linecap="butt" d="m168.0 580.2857l0 8.0" fill-rule="nonzero"></path><path fill="#000000" fill-opacity="0.0" d="m184.0 580.2857l0 8.0" fill-rule="nonzero"></path><path stroke="#666666" stroke-width="2.0" stroke-linejoin="round" stroke-linecap="butt" d="m184.0 580.2857l0 8.0" fill-rule="nonzero"></path><path fill="#000000" fill-opacity="0.0" d="m200.0 580.2857l0 8.0" fill-rule="nonzero"></path><path stroke="#666666" stroke-width="2.0" stroke-linejoin="round" stroke-linecap="butt" d="m200.0 580.2857l0 8.0" fill-rule="nonzero"></path><path fill="#000000" fill-opacity="0.0" d="m232.0 580.2857l0 8.0" fill-rule="nonzero"></path><path stroke="#666666" stroke-width="2.0" stroke-linejoin="round" stroke-linecap="butt" d="m232.0 580.2857l0 8.0" fill-rule="nonzero"></path><path fill="#000000" fill-opacity="0.0" d="m248.0 580.2857l0 8.0" fill-rule="nonzero"></path><path stroke="#666666" stroke-width="2.0" stroke-linejoin="round" stroke-linecap="butt" d="m248.0 580.2857l0 8.0" fill-rule="nonzero"></path><path fill="#000000" fill-opacity="0.0" d="m264.0 580.2857l0 8.0" fill-rule="nonzero"></path><path stroke="#666666" stroke-width="2.0" stroke-linejoin="round" stroke-linecap="butt" d="m264.0 580.2857l0 8.0" fill-rule="nonzero"></path><path fill="#000000" fill-opacity="0.0" d="m280.0 580.2857l0 8.0" fill-rule="nonzero"></path><path stroke="#666666" stroke-width="2.0" stroke-linejoin="round" stroke-linecap="butt" d="m280.0 580.2857l0 8.0" fill-rule="nonzero"></path><path fill="#000000" fill-opacity="0.0" d="m312.0 580.2857l0 8.0" fill-rule="nonzero"></path><path stroke="#666666" stroke-width="2.0" stroke-linejoin="round" stroke-linecap="butt" d="m312.0 580.2857l0 8.0" fill-rule="nonzero"></path><path fill="#000000" fill-opacity="0.0" d="m136.0 576.0l0 16.0" fill-rule="nonzero"></path><path stroke="#666666" stroke-width="2.0" stroke-linejoin="round" stroke-linecap="butt" d="m136.0 576.0l0 16.0" fill-rule="nonzero"></path><path fill="#000000" fill-opacity="0.0" d="m216.0 576.0l0 16.0" fill-rule="nonzero"></path><path stroke="#666666" stroke-width="2.0" stroke-linejoin="round" stroke-linecap="butt" d="m216.0 576.0l0 16.0" fill-rule="nonzero"></path><path fill="#000000" fill-opacity="0.0" d="m296.0 576.0l0 16.0" fill-rule="nonzero"></path><path stroke="#666666" stroke-width="2.0" stroke-linejoin="round" stroke-linecap="butt" d="m296.0 576.0l0 16.0" fill-rule="nonzero"></path><path fill="#000000" d="m84.0 584.0l0 0c0 -2.2091675 1.790863 -4.0 4.0 -4.0l0 0c1.0608673 0 2.0782852 0.42144775 2.8284302 1.1715698c0.75014496 0.7501221 1.1715698 1.7675781 1.1715698 2.8284302l0 0c0 2.2091675 -1.790863 4.0 -4.0 4.0l0 0c-2.209137 0 -4.0 -1.7908325 -4.0 -4.0z" fill-rule="nonzero"></path><path fill="#000000" d="m164.0 584.0l0 0c0 -2.2091675 1.790863 -4.0 4.0 -4.0l0 0c1.0608673 0 2.0782776 0.42144775 2.8284302 1.1715698c0.7501373 0.7501221 1.1715698 1.7675781 1.1715698 2.8284302l0 0c0 2.2091675 -1.790863 4.0 -4.0 4.0l0 0c-2.209137 0 -4.0 -1.7908325 -4.0 -4.0z" fill-rule="nonzero"></path><path fill="#000000" fill-opacity="0.0" d="m184.0 600.0l0 48.0" fill-rule="nonzero"></path><path stroke="#000000" stroke-width="2.0" stroke-linejoin="round" stroke-linecap="butt" d="m184.0 600.0l0 36.0" fill-rule="evenodd"></path><path fill="#000000" stroke="#000000" stroke-width="2.0" stroke-linecap="butt" d="m180.69653 636.0l3.3034668 9.076172l3.3034668 -9.076172z" fill-rule="evenodd"></path><path fill="#000000" fill-opacity="0.0" d="m184.0 598.3937l64.0 0l0 33.606323l-64.0 0z" fill-rule="nonzero"></path><path fill="#000000" d="m200.0625 629.20435q-4.28125 -3.953125 -4.28125 -8.75q0 -1.125 0.21875 -2.234375q0.234375 -1.125 0.734375 -2.25q0.515625 -1.125 1.34375 -2.234375q0.828125 -1.125 2.015625 -2.234375l0.9375 0.953125q-3.59375 3.546875 -3.59375 7.875q0 2.15625 0.90625 4.140625q0.90625 1.984375 2.6875 3.75l-0.96875 0.984375zm12.116669 -11.6875l-0.640625 1.109375l-2.609375 -1.734375l0.21875 3.1875l-1.328125 0l0.203125 -3.1875l-2.65625 1.734375l-0.59375 -1.09375l2.859375 -1.390625l-2.859375 -1.4375l0.640625 -1.078125l2.625 1.75l-0.21875 -3.171875l1.328125 0l-0.234375 3.171875l2.625 -1.765625l0.65625 1.140625l-2.859375 1.40625l2.84375 1.359375zm10.694794 7.796875l-8.0 0l0 -1.453125l3.140625 -3.109375q0.765625 -0.765625 1.25 -1.3125q0.484375 -0.5625 0.75 -1.015625q0.265625 -0.46875 0.359375 -0.875q0.09375 -0.40625 0.09375 -0.875q0 -0.453125 -0.125 -0.859375q-0.109375 -0.40625 -0.359375 -0.703125q-0.25 -0.3125 -0.65625 -0.484375q-0.390625 -0.171875 -0.953125 -0.171875q-0.765625 0 -1.40625 0.34375q-0.625 0.34375 -1.15625 0.890625l-0.890625 -1.078125q0.6875 -0.71875 1.578125 -1.15625q0.90625 -0.4375 2.09375 -0.4375q0.796875 0 1.453125 0.25q0.671875 0.234375 1.15625 0.6875q0.484375 0.453125 0.75 1.125q0.265625 0.65625 0.265625 1.46875q0 0.703125 -0.1875 1.296875q-0.1875 0.59375 -0.5625 1.1875q-0.375 0.578125 -0.953125 1.21875q-0.5625 0.625 -1.34375 1.375l-2.203125 2.140625l5.90625 0l0 1.546875zm4.2885437 -13.8125q4.265625 3.953125 4.265625 8.8125q0 1.0 -0.203125 2.078125q-0.203125 1.078125 -0.703125 2.203125q-0.484375 1.125 -1.3125 2.28125q-0.828125 1.171875 -2.09375 2.328125l-0.9375 -0.953125q1.8125 -1.78125 2.703125 -3.734375q0.890625 -1.953125 0.890625 -4.078125q0 -4.421875 -3.59375 -7.953125l0.984375 -0.984375z" fill-rule="nonzero"></path><path fill="#000000" fill-opacity="0.0" d="m56.0 664.0l280.0 0" fill-rule="nonzero"></path><path stroke="#666666" stroke-width="2.0" stroke-linejoin="round" stroke-linecap="butt" d="m56.0 664.0l268.0 0" fill-rule="evenodd"></path><path fill="#666666" stroke="#666666" stroke-width="2.0" stroke-linecap="butt" d="m324.0 667.30347l9.076202 -3.3034668l-9.076202 -3.3034668z" fill-rule="evenodd"></path><path fill="#000000" fill-opacity="0.0" d="m56.0 656.0l0 16.0" fill-rule="nonzero"></path><path stroke="#666666" stroke-width="2.0" stroke-linejoin="round" stroke-linecap="butt" d="m56.0 656.0l0 16.0" fill-rule="nonzero"></path><path fill="#000000" fill-opacity="0.0" d="m72.0 660.2857l0 8.0" fill-rule="nonzero"></path><path stroke="#666666" stroke-width="2.0" stroke-linejoin="round" stroke-linecap="butt" d="m72.0 660.2857l0 8.0" fill-rule="nonzero"></path><path fill="#000000" fill-opacity="0.0" d="m88.0 660.2857l0 8.0" fill-rule="nonzero"></path><path stroke="#666666" stroke-width="2.0" stroke-linejoin="round" stroke-linecap="butt" d="m88.0 660.2857l0 8.0" fill-rule="nonzero"></path><path fill="#000000" fill-opacity="0.0" d="m104.0 660.2857l0 8.0" fill-rule="nonzero"></path><path stroke="#666666" stroke-width="2.0" stroke-linejoin="round" stroke-linecap="butt" d="m104.0 660.2857l0 8.0" fill-rule="nonzero"></path><path fill="#000000" fill-opacity="0.0" d="m120.0 660.2857l0 8.0" fill-rule="nonzero"></path><path stroke="#666666" stroke-width="2.0" stroke-linejoin="round" stroke-linecap="butt" d="m120.0 660.2857l0 8.0" fill-rule="nonzero"></path><path fill="#000000" fill-opacity="0.0" d="m152.0 660.2857l0 8.0" fill-rule="nonzero"></path><path stroke="#666666" stroke-width="2.0" stroke-linejoin="round" stroke-linecap="butt" d="m152.0 660.2857l0 8.0" fill-rule="nonzero"></path><path fill="#000000" fill-opacity="0.0" d="m168.0 660.2857l0 8.0" fill-rule="nonzero"></path><path stroke="#666666" stroke-width="2.0" stroke-linejoin="round" stroke-linecap="butt" d="m168.0 660.2857l0 8.0" fill-rule="nonzero"></path><path fill="#000000" fill-opacity="0.0" d="m184.0 660.2857l0 8.0" fill-rule="nonzero"></path><path stroke="#666666" stroke-width="2.0" stroke-linejoin="round" stroke-linecap="butt" d="m184.0 660.2857l0 8.0" fill-rule="nonzero"></path><path fill="#000000" fill-opacity="0.0" d="m200.0 660.2857l0 8.0" fill-rule="nonzero"></path><path stroke="#666666" stroke-width="2.0" stroke-linejoin="round" stroke-linecap="butt" d="m200.0 660.2857l0 8.0" fill-rule="nonzero"></path><path fill="#000000" fill-opacity="0.0" d="m232.0 660.2857l0 8.0" fill-rule="nonzero"></path><path stroke="#666666" stroke-width="2.0" stroke-linejoin="round" stroke-linecap="butt" d="m232.0 660.2857l0 8.0" fill-rule="nonzero"></path><path fill="#000000" fill-opacity="0.0" d="m248.0 660.2857l0 8.0" fill-rule="nonzero"></path><path stroke="#666666" stroke-width="2.0" stroke-linejoin="round" stroke-linecap="butt" d="m248.0 660.2857l0 8.0" fill-rule="nonzero"></path><path fill="#000000" fill-opacity="0.0" d="m264.0 660.2857l0 8.0" fill-rule="nonzero"></path><path stroke="#666666" stroke-width="2.0" stroke-linejoin="round" stroke-linecap="butt" d="m264.0 660.2857l0 8.0" fill-rule="nonzero"></path><path fill="#000000" fill-opacity="0.0" d="m280.0 660.2857l0 8.0" fill-rule="nonzero"></path><path stroke="#666666" stroke-width="2.0" stroke-linejoin="round" stroke-linecap="butt" d="m280.0 660.2857l0 8.0" fill-rule="nonzero"></path><path fill="#000000" fill-opacity="0.0" d="m312.0 660.2857l0 8.0" fill-rule="nonzero"></path><path stroke="#666666" stroke-width="2.0" stroke-linejoin="round" stroke-linecap="butt" d="m312.0 660.2857l0 8.0" fill-rule="nonzero"></path><path fill="#000000" fill-opacity="0.0" d="m136.0 656.0l0 16.0" fill-rule="nonzero"></path><path stroke="#666666" stroke-width="2.0" stroke-linejoin="round" stroke-linecap="butt" d="m136.0 656.0l0 16.0" fill-rule="nonzero"></path><path fill="#000000" fill-opacity="0.0" d="m216.0 656.0l0 16.0" fill-rule="nonzero"></path><path stroke="#666666" stroke-width="2.0" stroke-linejoin="round" stroke-linecap="butt" d="m216.0 656.0l0 16.0" fill-rule="nonzero"></path><path fill="#000000" fill-opacity="0.0" d="m296.0 656.0l0 16.0" fill-rule="nonzero"></path><path stroke="#666666" stroke-width="2.0" stroke-linejoin="round" stroke-linecap="butt" d="m296.0 656.0l0 16.0" fill-rule="nonzero"></path><path fill="#000000" d="m115.5 664.0l0 0c0 -2.2091675 1.790863 -4.0 4.0 -4.0l0 0c1.0608673 0 2.0782852 0.42144775 2.8284302 1.1715698c0.75014496 0.7501221 1.1715698 1.7675781 1.1715698 2.8284302l0 0c0 2.2091675 -1.790863 4.0 -4.0 4.0l0 0c-2.209137 0 -4.0 -1.7908325 -4.0 -4.0z" fill-rule="nonzero"></path><path fill="#000000" d="m277.0 664.0l0 0c0 -2.2091675 1.790863 -4.0 4.0 -4.0l0 0c1.060852 0 2.0782776 0.42144775 2.8284302 1.1715698c0.7501526 0.7501221 1.1715698 1.7675781 1.1715698 2.8284302l0 0c0 2.2091675 -1.790863 4.0 -4.0 4.0l0 0c-2.209137 0 -4.0 -1.7908325 -4.0 -4.0z" fill-rule="nonzero"></path><path fill="#000000" fill-opacity="0.0" d="m64.0 552.0l32.0 0l0 32.0l-32.0 0z" fill-rule="nonzero"></path><path fill="#000000" d="m76.19434 565.84937l0.859375 0l0.015625 0.984375q0.484375 -0.5625 0.953125 -0.8125q0.46875 -0.265625 0.9375 -0.265625q0.828125 0 1.265625 0.546875q0.4375 0.53125 0.40625 1.609375l-0.953125 0q0.015625 -0.71875 -0.203125 -1.03125q-0.21875 -0.328125 -0.65625 -0.328125q-0.1875 0 -0.375 0.078125q-0.1875 0.0625 -0.390625 0.21875q-0.203125 0.140625 -0.4375 0.375q-0.21875 0.21875 -0.46875 0.546875l0 3.46875l-0.953125 0l0 -5.390625z" fill-rule="nonzero"></path><path fill="#000000" d="m84.381325 575.24l-2.796875 0l0 -0.546875l1.140625 0l0 -3.265625l-1.0625 0.578125l-0.21875 -0.5l1.421875 -0.75l0.515625 0l0 3.9375l1.0 0l0 0.546875z" fill-rule="nonzero"></path><path fill="#000000" fill-opacity="0.0" d="m160.0 552.0l32.0 0l0 32.0l-32.0 0z" fill-rule="nonzero"></path><path fill="#000000" d="m172.19434 565.84937l0.859375 0l0.015625 0.984375q0.484375 -0.5625 0.953125 -0.8125q0.46875 -0.265625 0.9375 -0.265625q0.828125 0 1.265625 0.546875q0.4375 0.53125 0.40625 1.609375l-0.953125 0q0.015625 -0.71875 -0.203125 -1.03125q-0.21875 -0.328125 -0.65625 -0.328125q-0.1875 0 -0.375 0.078125q-0.1875 0.0625 -0.390625 0.21875q-0.203125 0.140625 -0.4375 0.375q-0.21875 0.21875 -0.46875 0.546875l0 3.46875l-0.953125 0l0 -5.390625z" fill-rule="nonzero"></path><path fill="#000000" d="m180.42819 575.24l-2.953125 0l0 -0.53125l1.15625 -1.15625q0.28125 -0.28125 0.453125 -0.484375q0.1875 -0.203125 0.28125 -0.359375q0.109375 -0.171875 0.140625 -0.328125q0.03125 -0.15625 0.03125 -0.328125q0 -0.15625 -0.046875 -0.296875q-0.046875 -0.15625 -0.140625 -0.265625q-0.078125 -0.125 -0.234375 -0.1875q-0.140625 -0.0625 -0.34375 -0.0625q-0.296875 0 -0.53125 0.125q-0.21875 0.125 -0.421875 0.328125l-0.328125 -0.390625q0.25 -0.265625 0.578125 -0.421875q0.34375 -0.171875 0.78125 -0.171875q0.296875 0 0.53125 0.09375q0.25 0.09375 0.421875 0.265625q0.1875 0.15625 0.28125 0.40625q0.09375 0.234375 0.09375 0.53125q0 0.265625 -0.078125 0.484375q-0.0625 0.21875 -0.203125 0.4375q-0.125 0.21875 -0.34375 0.453125q-0.203125 0.21875 -0.5 0.5l-0.796875 0.796875l2.171875 0l0 0.5625z" fill-rule="nonzero"></path><path fill="#000000" fill-opacity="0.0" d="m88.0 572.5l0 0c0 -4.418274 0.59693146 -8.0 1.3332825 -8.0l37.333435 0c0.736351 0 1.3332825 -3.581726 1.3332825 -8.0l0 0c0 4.418274 0.5969238 8.0 1.3332825 8.0l37.333435 0c0.73635864 0 1.3332825 3.581726 1.3332825 8.0z" fill-rule="nonzero"></path><path fill="#000000" fill-opacity="0.0" d="m88.0 572.5l0 0c0 -4.418274 0.59693146 -8.0 1.3332825 -8.0l37.333435 0c0.736351 0 1.3332825 -3.581726 1.3332825 -8.0l0 0c0 4.418274 0.5969238 8.0 1.3332825 8.0l37.333435 0c0.73635864 0 1.3332825 3.581726 1.3332825 8.0" fill-rule="nonzero"></path><path stroke="#666666" stroke-width="2.0" stroke-linejoin="round" stroke-linecap="butt" d="m88.0 572.5l0 0c0 -4.418274 0.59693146 -8.0 1.3332825 -8.0l37.333435 0c0.736351 0 1.3332825 -3.581726 1.3332825 -8.0l0 0c0 4.418274 0.5969238 8.0 1.3332825 8.0l37.333435 0c0.73635864 0 1.3332825 3.581726 1.3332825 8.0" fill-rule="nonzero"></path><path fill="#000000" fill-opacity="0.0" d="m280.0 676.0l0 0c0 4.418274 -0.5969238 8.0 -1.3332825 8.0l-77.333435 0c-0.73635864 0 -1.3332825 3.581726 -1.3332825 8.0l0 0c0 -4.418274 -0.5969238 -8.0 -1.3332825 -8.0l-77.333435 0c-0.736351 0 -1.3332825 -3.581726 -1.3332825 -8.0z" fill-rule="nonzero"></path><path fill="#000000" fill-opacity="0.0" d="m280.0 676.0l0 0c0 4.418274 -0.5969238 8.0 -1.3332825 8.0l-77.333435 0c-0.73635864 0 -1.3332825 3.581726 -1.3332825 8.0l0 0c0 -4.418274 -0.5969238 -8.0 -1.3332825 -8.0l-77.333435 0c-0.736351 0 -1.3332825 -3.581726 -1.3332825 -8.0" fill-rule="nonzero"></path><path stroke="#666666" stroke-width="2.0" stroke-linejoin="round" stroke-linecap="butt" d="m280.0 676.0l0 0c0 4.418274 -0.5969238 8.0 -1.3332825 8.0l-77.333435 0c-0.73635864 0 -1.3332825 3.581726 -1.3332825 8.0l0 0c0 -4.418274 -0.5969238 -8.0 -1.3332825 -8.0l-77.333435 0c-0.736351 0 -1.3332825 -3.581726 -1.3332825 -8.0" fill-rule="nonzero"></path><path fill="#000000" fill-opacity="0.0" d="m96.5 655.5l32.0 0l0 32.0l-32.0 0z" fill-rule="nonzero"></path><path fill="#000000" d="m108.69434 669.34937l0.859375 0l0.015625 0.984375q0.484375 -0.5625 0.953125 -0.8125q0.46875 -0.265625 0.9375 -0.265625q0.828125 0 1.265625 0.546875q0.4375 0.53125 0.40625 1.609375l-0.953125 0q0.015625 -0.71875 -0.203125 -1.03125q-0.21875 -0.328125 -0.65625 -0.328125q-0.1875 0 -0.375 0.078125q-0.1875 0.0625 -0.390625 0.21875q-0.203125 0.140625 -0.4375 0.375q-0.21875 0.21875 -0.46875 0.546875l0 3.46875l-0.953125 0l0 -5.390625z" fill-rule="nonzero"></path><path fill="#000000" d="m116.881325 678.74l-2.796875 0l0 -0.546875l1.140625 0l0 -3.265625l-1.0625 0.578125l-0.21875 -0.5l1.421875 -0.75l0.515625 0l0 3.9375l1.0 0l0 0.546875z" fill-rule="nonzero"></path><path fill="#000000" fill-opacity="0.0" d="m272.0 655.5l32.0 0l0 32.0l-32.0 0z" fill-rule="nonzero"></path><path fill="#000000" d="m284.19434 669.34937l0.859375 0l0.015625 0.984375q0.484375 -0.5625 0.953125 -0.8125q0.46875 -0.265625 0.9375 -0.265625q0.828125 0 1.265625 0.546875q0.4375 0.53125 0.40625 1.609375l-0.953125 0q0.015625 -0.71875 -0.203125 -1.03125q-0.21875 -0.328125 -0.65625 -0.328125q-0.1875 0 -0.375 0.078125q-0.1875 0.0625 -0.390625 0.21875q-0.203125 0.140625 -0.4375 0.375q-0.21875 0.21875 -0.46875 0.546875l0 3.46875l-0.953125 0l0 -5.390625z" fill-rule="nonzero"></path><path fill="#000000" d="m292.4282 678.74l-2.953125 0l0 -0.53125l1.15625 -1.15625q0.28125 -0.28125 0.453125 -0.484375q0.1875 -0.203125 0.28125 -0.359375q0.109375 -0.171875 0.140625 -0.328125q0.03125 -0.15625 0.03125 -0.328125q0 -0.15625 -0.046875 -0.296875q-0.046875 -0.15625 -0.140625 -0.265625q-0.078125 -0.125 -0.234375 -0.1875q-0.140625 -0.0625 -0.34375 -0.0625q-0.296875 0 -0.53125 0.125q-0.21875 0.125 -0.421875 0.328125l-0.328125 -0.390625q0.25 -0.265625 0.578125 -0.421875q0.34375 -0.171875 0.78125 -0.171875q0.296875 0 0.53125 0.09375q0.25 0.09375 0.421875 0.265625q0.1875 0.15625 0.28125 0.40625q0.09375 0.234375 0.09375 0.53125q0 0.265625 -0.078125 0.484375q-0.0625 0.21875 -0.203125 0.4375q-0.125 0.21875 -0.34375 0.453125q-0.203125 0.21875 -0.5 0.5l-0.796875 0.796875l2.171875 0l0 0.5625z" fill-rule="nonzero"></path><path fill="#000000" fill-opacity="0.0" d="m112.0 520.0l56.0 0l0 24.0l-56.0 0z" fill-rule="nonzero"></path><path fill="#000000" d="m122.015625 542.45123q0 -1.1875 0.3125 -2.109375q0.328125 -0.921875 0.921875 -1.546875q0.609375 -0.640625 1.4375 -0.96875q0.84375 -0.328125 1.875 -0.328125q0.453125 0 0.875 0.0625q0.4375 0.046875 0.859375 0.171875l0 -3.921875l1.625 0l0 13.109375l-1.453125 0l-0.0625 -1.765625q-0.671875 0.984375 -1.46875 1.46875q-0.78125 0.46875 -1.703125 0.46875q-0.796875 0 -1.40625 -0.328125q-0.59375 -0.34375 -1.0 -0.953125q-0.40625 -0.609375 -0.609375 -1.453125q-0.203125 -0.859375 -0.203125 -1.90625zm1.640625 -0.09375q0 1.6875 0.5 2.515625q0.5 0.828125 1.40625 0.828125q0.609375 0 1.296875 -0.546875q0.6875 -0.546875 1.4375 -1.625l0 -4.3125q-0.40625 -0.1875 -0.890625 -0.28125q-0.484375 -0.109375 -0.953125 -0.109375q-1.3125 0 -2.0625 0.859375q-0.734375 0.84375 -0.734375 2.671875z" fill-rule="nonzero"></path><path fill="#000000" d="m134.1948 548.8731l-1.734375 0l0 -0.84375l2.765625 0l0 5.046875l1.75 0l0 0.84375l-4.703125 0l0 -0.84375l1.921875 0l0 -4.203125zm0.359375 -3.296875q0.171875 0 0.3125 0.0625q0.15625 0.046875 0.265625 0.171875q0.109375 0.109375 0.171875 0.25q0.0625 0.140625 0.0625 0.3125q0 0.15625 -0.0625 0.3125q-0.0625 0.140625 -0.171875 0.25q-0.109375 0.109375 -0.265625 0.171875q-0.140625 0.0625 -0.3125 0.0625q-0.171875 0 -0.3125 -0.0625q-0.140625 -0.0625 -0.25 -0.171875q-0.109375 -0.109375 -0.171875 -0.25q-0.0625 -0.15625 -0.0625 -0.3125q0 -0.171875 0.0625 -0.3125q0.0625 -0.140625 0.171875 -0.25q0.109375 -0.125 0.25 -0.171875q0.140625 -0.0625 0.3125 -0.0625zm4.478714 2.453125l0.90625 0l0.046875 0.953125q0.25 -0.296875 0.484375 -0.5q0.25 -0.203125 0.484375 -0.328125q0.234375 -0.125 0.46875 -0.171875q0.234375 -0.046875 0.5 -0.046875q0.90625 0 1.375 0.53125q0.46875 0.53125 0.46875 1.609375l0 3.84375l-1.03125 0l0 -3.75q0 -0.703125 -0.265625 -1.03125q-0.25 -0.328125 -0.75 -0.328125q-0.1875 0 -0.375 0.0625q-0.171875 0.046875 -0.375 0.1875q-0.1875 0.140625 -0.421875 0.375q-0.21875 0.234375 -0.5 0.578125l0 3.90625l-1.015625 0l0 -5.890625z" fill-rule="nonzero"></path><path fill="#000000" fill-opacity="0.0" d="m184.0 680.0l56.0 0l0 24.0l-56.0 0z" fill-rule="nonzero"></path><path fill="#000000" d="m194.01562 702.45123q0 -1.1875 0.3125 -2.109375q0.328125 -0.921875 0.921875 -1.546875q0.609375 -0.640625 1.4375 -0.96875q0.84375 -0.328125 1.875 -0.328125q0.453125 0 0.875 0.0625q0.4375 0.046875 0.859375 0.171875l0 -3.921875l1.625 0l0 13.109375l-1.453125 0l-0.0625 -1.765625q-0.671875 0.984375 -1.46875 1.46875q-0.78125 0.46875 -1.703125 0.46875q-0.796875 0 -1.40625 -0.328125q-0.59375 -0.34375 -1.0 -0.953125q-0.40625 -0.609375 -0.609375 -1.453125q-0.203125 -0.859375 -0.203125 -1.90625zm1.640625 -0.09375q0 1.6875 0.5 2.515625q0.5 0.828125 1.40625 0.828125q0.609375 0 1.296875 -0.546875q0.6875 -0.546875 1.4375 -1.625l0 -4.3125q-0.40625 -0.1875 -0.890625 -0.28125q-0.484375 -0.109375 -0.953125 -0.109375q-1.3125 0 -2.0625 0.859375q-0.734375 0.84375 -0.734375 2.671875z" fill-rule="nonzero"></path><path fill="#000000" d="m209.3198 710.9356q0 0.6875 -0.203125 1.265625q-0.1875 0.5625 -0.546875 0.96875q-0.359375 0.40625 -0.890625 0.640625q-0.515625 0.21875 -1.1875 0.21875q-0.625 0 -1.125 -0.1875q-0.5 -0.203125 -0.859375 -0.578125q-0.34375 -0.390625 -0.53125 -0.953125q-0.171875 -0.5625 -0.171875 -1.296875q0 -0.6875 0.1875 -1.25q0.1875 -0.5625 0.546875 -0.96875q0.375 -0.40625 0.890625 -0.625q0.53125 -0.234375 1.1875 -0.234375q0.625 0 1.125 0.203125q0.515625 0.1875 0.859375 0.5625q0.34375 0.375 0.53125 0.9375q0.1875 0.5625 0.1875 1.296875zm-1.046875 0.046875q0 -0.546875 -0.125 -0.953125q-0.109375 -0.40625 -0.34375 -0.671875q-0.21875 -0.28125 -0.546875 -0.421875q-0.3125 -0.140625 -0.703125 -0.140625q-0.453125 0 -0.78125 0.1875q-0.328125 0.171875 -0.53125 0.46875q-0.203125 0.296875 -0.3125 0.703125q-0.09375 0.390625 -0.09375 0.828125q0 0.546875 0.125 0.953125q0.125 0.40625 0.34375 0.6875q0.21875 0.265625 0.53125 0.40625q0.328125 0.140625 0.71875 0.140625q0.453125 0 0.78125 -0.171875q0.328125 -0.1875 0.53125 -0.484375q0.21875 -0.3125 0.3125 -0.703125q0.09375 -0.390625 0.09375 -0.828125zm7.494339 2.9375l-0.921875 0l-0.03125 -0.953125q-0.265625 0.3125 -0.5 0.515625q-0.234375 0.203125 -0.46875 0.328125q-0.234375 0.109375 -0.484375 0.15625q-0.234375 0.0625 -0.5 0.0625q-0.90625 0 -1.375 -0.53125q-0.453125 -0.546875 -0.453125 -1.625l0 -3.84375l1.015625 0l0 3.765625q0 1.359375 1.03125 1.359375q0.1875 0 0.359375 -0.046875q0.171875 -0.0625 0.375 -0.203125q0.203125 -0.140625 0.421875 -0.375q0.21875 -0.234375 0.5 -0.59375l0 -3.90625l1.03125 0l0 5.890625zm6.838089 -0.078125q-0.34375 0.078125 -0.71875 0.109375q-0.359375 0.046875 -0.734375 0.046875q-1.109375 0 -1.65625 -0.5q-0.546875 -0.5 -0.546875 -1.53125l0 -3.078125l-1.640625 0l0 -0.859375l1.640625 0l0 -1.609375l1.015625 -0.265625l0 1.875l2.640625 0l0 0.859375l-2.640625 0l0 2.984375q0 0.640625 0.328125 0.953125q0.34375 0.3125 1.0 0.3125q0.28125 0 0.609375 -0.046875q0.34375 -0.046875 0.703125 -0.140625l0 0.890625z" fill-rule="nonzero"></path><path fill="#000000" fill-opacity="0.0" d="m280.0 598.3937l288.0 0l0 33.606323l-288.0 0z" fill-rule="nonzero"></path><path fill="#000000" d="m290.01562 620.845q0 -1.1875 0.3125 -2.109375q0.328125 -0.921875 0.921875 -1.546875q0.609375 -0.640625 1.4375 -0.96875q0.84375 -0.328125 1.875 -0.328125q0.453125 0 0.875 0.0625q0.4375 0.046875 0.859375 0.171875l0 -3.921875l1.625 0l0 13.109375l-1.453125 0l-0.0625 -1.765625q-0.671875 0.984375 -1.46875 1.46875q-0.78125 0.46875 -1.703125 0.46875q-0.796875 0 -1.40625 -0.328125q-0.59375 -0.34375 -1.0 -0.953125q-0.40625 -0.609375 -0.609375 -1.453125q-0.203125 -0.859375 -0.203125 -1.90625zm1.640625 -0.09375q0 1.6875 0.5 2.515625q0.5 0.828125 1.40625 0.828125q0.609375 0 1.296875 -0.546875q0.6875 -0.546875 1.4375 -1.625l0 -4.3125q-0.40625 -0.1875 -0.890625 -0.28125q-0.484375 -0.109375 -0.953125 -0.109375q-1.3125 0 -2.0625 0.859375q-0.734375 0.84375 -0.734375 2.671875z" fill-rule="nonzero"></path><path fill="#000000" d="m305.3198 629.32935q0 0.6875 -0.203125 1.265625q-0.1875 0.5625 -0.546875 0.96875q-0.359375 0.40625 -0.890625 0.640625q-0.515625 0.21875 -1.1875 0.21875q-0.625 0 -1.125 -0.1875q-0.5 -0.203125 -0.859375 -0.578125q-0.34375 -0.390625 -0.53125 -0.953125q-0.171875 -0.5625 -0.171875 -1.296875q0 -0.6875 0.1875 -1.25q0.1875 -0.5625 0.546875 -0.96875q0.375 -0.40625 0.890625 -0.625q0.53125 -0.234375 1.1875 -0.234375q0.625 0 1.125 0.203125q0.515625 0.1875 0.859375 0.5625q0.34375 0.375 0.53125 0.9375q0.1875 0.5625 0.1875 1.296875zm-1.046875 0.046875q0 -0.546875 -0.125 -0.953125q-0.109375 -0.40625 -0.34375 -0.671875q-0.21875 -0.28125 -0.546875 -0.421875q-0.3125 -0.140625 -0.703125 -0.140625q-0.453125 0 -0.78125 0.1875q-0.328125 0.171875 -0.53125 0.46875q-0.203125 0.296875 -0.3125 0.703125q-0.09375 0.390625 -0.09375 0.828125q0 0.546875 0.125 0.953125q0.125 0.40625 0.34375 0.6875q0.21875 0.265625 0.53125 0.40625q0.328125 0.140625 0.71875 0.140625q0.453125 0 0.78125 -0.171875q0.328125 -0.1875 0.53125 -0.484375q0.21875 -0.3125 0.3125 -0.703125q0.09375 -0.390625 0.09375 -0.828125zm7.4943542 2.9375l-0.921875 0l-0.03125 -0.953125q-0.265625 0.3125 -0.5 0.515625q-0.234375 0.203125 -0.46875 0.328125q-0.234375 0.109375 -0.484375 0.15625q-0.234375 0.0625 -0.5 0.0625q-0.90625 0 -1.375 -0.53125q-0.453125 -0.546875 -0.453125 -1.625l0 -3.84375l1.015625 0l0 3.765625q0 1.359375 1.03125 1.359375q0.1875 0 0.359375 -0.046875q0.171875 -0.0625 0.375 -0.203125q0.203125 -0.140625 0.421875 -0.375q0.21875 -0.234375 0.5 -0.59375l0 -3.90625l1.03125 0l0 5.890625zm6.8380737 -0.078125q-0.34375 0.078125 -0.71875 0.109375q-0.359375 0.046875 -0.734375 0.046875q-1.109375 0 -1.65625 -0.5q-0.546875 -0.5 -0.546875 -1.53125l0 -3.078125l-1.640625 0l0 -0.859375l1.640625 0l0 -1.609375l1.015625 -0.265625l0 1.875l2.640625 0l0 0.859375l-2.640625 0l0 2.984375q0 0.640625 0.328125 0.953125q0.34375 0.3125 1.0 0.3125q0.28125 0 0.609375 -0.046875q0.34375 -0.046875 0.703125 -0.140625l0 0.890625z" fill-rule="nonzero"></path><path fill="#000000" d="m328.99033 619.3137l-7.984375 0l0 -1.359375l7.984375 0l0 1.359375zm0 3.234375l-7.984375 0l0 -1.359375l7.984375 0l0 1.359375zm20.655212 2.765625l-8.0 0l0 -1.453125l3.140625 -3.109375q0.765625 -0.765625 1.25 -1.3125q0.484375 -0.5625 0.75 -1.015625q0.265625 -0.46875 0.359375 -0.875q0.09375 -0.40625 0.09375 -0.875q0 -0.453125 -0.125 -0.859375q-0.109375 -0.40625 -0.359375 -0.703125q-0.25 -0.3125 -0.65625 -0.484375q-0.390625 -0.171875 -0.953125 -0.171875q-0.765625 0 -1.40625 0.34375q-0.625 0.34375 -1.15625 0.890625l-0.890625 -1.078125q0.6875 -0.71875 1.578125 -1.15625q0.90625 -0.4375 2.09375 -0.4375q0.796875 0 1.453125 0.25q0.671875 0.234375 1.15625 0.6875q0.484375 0.453125 0.75 1.125q0.265625 0.65625 0.265625 1.46875q0 0.703125 -0.1875 1.296875q-0.1875 0.59375 -0.5625 1.1875q-0.375 0.578125 -0.953125 1.21875q-0.5625 0.625 -1.34375 1.375l-2.203125 2.140625l5.90625 0l0 1.546875zm1.9135437 -4.46875q0 -1.1875 0.3125 -2.109375q0.328125 -0.921875 0.921875 -1.546875q0.609375 -0.640625 1.4375 -0.96875q0.84375 -0.328125 1.875 -0.328125q0.453125 0 0.875 0.0625q0.4375 0.046875 0.859375 0.171875l0 -3.921875l1.625 0l0 13.109375l-1.453125 0l-0.0625 -1.765625q-0.671875 0.984375 -1.46875 1.46875q-0.78125 0.46875 -1.703125 0.46875q-0.796875 0 -1.40625 -0.328125q-0.59375 -0.34375 -1.0 -0.953125q-0.40625 -0.609375 -0.609375 -1.453125q-0.203125 -0.859375 -0.203125 -1.90625zm1.640625 -0.09375q0 1.6875 0.5 2.515625q0.5 0.828125 1.40625 0.828125q0.609375 0 1.296875 -0.546875q0.6875 -0.546875 1.4375 -1.625l0 -4.3125q-0.40625 -0.1875 -0.890625 -0.28125q-0.484375 -0.109375 -0.953125 -0.109375q-1.3125 0 -2.0625 0.859375q-0.734375 0.84375 -0.734375 2.671875z" fill-rule="nonzero"></path><path fill="#000000" d="m363.73825 627.26685l-1.734375 0l0 -0.84375l2.765625 0l0 5.046875l1.75 0l0 0.84375l-4.703125 0l0 -0.84375l1.921875 0l0 -4.203125zm0.359375 -3.296875q0.171875 0 0.3125 0.0625q0.15625 0.046875 0.265625 0.171875q0.109375 0.109375 0.171875 0.25q0.0625 0.140625 0.0625 0.3125q0 0.15625 -0.0625 0.3125q-0.0625 0.140625 -0.171875 0.25q-0.109375 0.109375 -0.265625 0.171875q-0.140625 0.0625 -0.3125 0.0625q-0.171875 0 -0.3125 -0.0625q-0.140625 -0.0625 -0.25 -0.171875q-0.109375 -0.109375 -0.171875 -0.25q-0.0625 -0.15625 -0.0625 -0.3125q0 -0.171875 0.0625 -0.3125q0.0625 -0.140625 0.171875 -0.25q0.109375 -0.125 0.25 -0.171875q0.140625 -0.0625 0.3125 -0.0625zm4.4786987 2.453125l0.90625 0l0.046875 0.953125q0.25 -0.296875 0.484375 -0.5q0.25 -0.203125 0.484375 -0.328125q0.234375 -0.125 0.46875 -0.171875q0.234375 -0.046875 0.5 -0.046875q0.90625 0 1.375 0.53125q0.46875 0.53125 0.46875 1.609375l0 3.84375l-1.03125 0l0 -3.75q0 -0.703125 -0.265625 -1.03125q-0.25 -0.328125 -0.75 -0.328125q-0.1875 0 -0.375 0.0625q-0.171875 0.046875 -0.375 0.1875q-0.1875 0.140625 -0.421875 0.375q-0.21875 0.234375 -0.5 0.578125l0 3.90625l-1.015625 0l0 -5.890625z" fill-rule="nonzero"></path><path fill="#000000" d="m393.95297 619.3137l-7.984375 0l0 -1.359375l7.984375 0l0 1.359375zm0 3.234375l-7.984375 0l0 -1.359375l7.984375 0l0 1.359375zm2.9760437 -6.46875l1.0 -1.03125l6.234375 5.203125l-6.234375 5.21875l-1.0 -1.03125l5.0625 -4.15625l-5.0625 -4.203125zm27.295837 8.890625q-0.625 0.234375 -1.296875 0.34375q-0.65625 0.125 -1.359375 0.125q-2.21875 0 -3.40625 -1.1875q-1.1875 -1.203125 -1.1875 -3.5q0 -1.109375 0.34375 -2.0q0.34375 -0.90625 0.953125 -1.546875q0.625 -0.640625 1.484375 -0.984375q0.875 -0.34375 1.90625 -0.34375q0.734375 0 1.359375 0.109375q0.625 0.09375 1.203125 0.3125l0 1.546875q-0.59375 -0.3125 -1.234375 -0.453125q-0.625 -0.15625 -1.28125 -0.15625q-0.625 0 -1.1875 0.25q-0.546875 0.234375 -0.96875 0.6875q-0.40625 0.4375 -0.65625 1.078125q-0.234375 0.640625 -0.234375 1.4375q0 1.6875 0.8125 2.53125q0.828125 0.84375 2.28125 0.84375q0.65625 0 1.265625 -0.140625q0.625 -0.15625 1.203125 -0.453125l0 1.5zm21.014587 -5.65625l-7.984375 0l0 -1.359375l7.984375 0l0 1.359375zm0 3.234375l-7.984375 0l0 -1.359375l7.984375 0l0 1.359375zm20.655212 2.765625l-8.0 0l0 -1.453125l3.140625 -3.109375q0.765625 -0.765625 1.25 -1.3125q0.484375 -0.5625 0.75 -1.015625q0.265625 -0.46875 0.359375 -0.875q0.09375 -0.40625 0.09375 -0.875q0 -0.453125 -0.125 -0.859375q-0.109375 -0.40625 -0.359375 -0.703125q-0.25 -0.3125 -0.65625 -0.484375q-0.390625 -0.171875 -0.953125 -0.171875q-0.765625 0 -1.40625 0.34375q-0.625 0.34375 -1.15625 0.890625l-0.890625 -1.078125q0.6875 -0.71875 1.578125 -1.15625q0.90625 -0.4375 2.09375 -0.4375q0.796875 0 1.453125 0.25q0.671875 0.234375 1.15625 0.6875q0.484375 0.453125 0.75 1.125q0.265625 0.65625 0.265625 1.46875q0 0.703125 -0.1875 1.296875q-0.1875 0.59375 -0.5625 1.1875q-0.375 0.578125 -0.953125 1.21875q-0.5625 0.625 -1.34375 1.375l-2.203125 2.140625l5.90625 0l0 1.546875z" fill-rule="nonzero"></path><path fill="#000000" fill-opacity="0.0" d="m8.0 488.0l480.0 0" fill-rule="nonzero"></path><path stroke="#999999" stroke-width="2.0" stroke-linejoin="round" stroke-linecap="butt" stroke-dasharray="2.0,6.0" d="m8.0 488.0l480.0 0" fill-rule="nonzero"></path></g></svg>

